<svg version="1.1" id="Layer_1" xmlns="http://www.w3.org/2000/svg" xmlns:xlink="http://www.w3.org/1999/xlink" x="0px" y="0px"
	 width="100%" viewBox="0 0 912 1024" enable-background="new 0 0 912 1024" xml:space="preserve">
<path fill="#000000" opacity="1.000000" stroke="#000000" stroke-width="8" stroke-linejoin="round" 
	d="
M97.993431,731.939575 
	C85.201202,709.835022 73.792435,687.472351 64.778770,663.917786 
	C54.824406,637.905090 47.462063,611.214172 42.431999,583.814636 
	C36.999573,554.223450 35.028454,524.423096 35.715721,494.396912 
	C36.346413,466.842316 40.708904,439.792206 46.599594,412.938446 
	C47.010086,411.067169 48.908333,408.762390 46.052540,407.181976 
	C43.676510,405.867096 42.023590,406.452240 39.565327,408.158569 
	C36.636330,410.191711 35.250172,412.408325 34.422588,415.547089 
	C27.876539,440.374268 23.562439,465.564789 21.127413,491.138458 
	C19.163925,511.759796 19.054123,532.356018 20.110828,552.992981 
	C21.535776,580.821594 25.847502,608.189453 32.614567,635.240173 
	C38.444649,658.545349 45.840824,681.282593 55.350391,703.315796 
	C84.397949,770.617798 126.940681,827.783447 183.948441,874.046631 
	C226.015213,908.184875 272.867584,933.740417 323.829041,951.841675 
	C342.604126,958.510437 361.765991,963.884155 381.297638,967.981079 
	C385.974762,968.962158 390.664856,969.994080 395.351227,970.991028 
	C397.420197,971.431213 400.432159,971.388916 399.791138,974.362305 
	C399.251312,976.866455 396.567780,976.002625 394.640411,975.554016 
	C382.500488,972.728394 370.285034,970.183716 358.244385,966.982544 
	C287.459778,948.163086 223.840073,915.516174 168.357422,867.527466 
	C126.814926,831.596008 93.659966,788.855957 67.300034,740.789612 
	C47.809761,705.249817 33.372974,667.707214 24.133350,628.244751 
	C18.630468,604.741943 14.802874,580.926575 12.883962,556.839355 
	C11.134804,534.882996 11.567284,512.989380 13.390752,491.005829 
	C15.224801,468.894592 18.432062,447.070221 23.152800,425.440399 
	C33.719433,377.025452 51.725883,331.595459 77.484177,289.194305 
	C114.405479,228.417587 163.185883,179.345276 223.118881,141.352798 
	C252.475723,122.743027 283.790009,108.067650 316.676971,96.659821 
	C331.920563,91.372147 347.409698,87.030647 362.996521,83.053078 
	C374.018250,80.240463 385.314301,78.502281 396.488800,76.289101 
	C398.397156,75.911148 400.509705,75.766441 400.820312,78.222816 
	C401.153992,80.861343 398.747803,81.411301 396.832520,81.808693 
	C388.207733,83.598213 379.528381,85.130058 370.919647,86.990723 
	C330.425385,95.743019 292.212952,110.659004 255.782013,130.200867 
	C197.447083,161.492218 148.855362,204.143539 109.138046,256.973328 
	C87.210457,286.140228 69.368828,317.659332 55.802582,351.560394 
	C52.429943,359.988373 54.070431,364.571045 62.376270,368.395508 
	C71.873535,372.768555 82.076080,374.622864 92.460541,374.681366 
	C133.122849,374.910339 173.795288,374.421814 214.446915,375.150665 
	C251.604141,375.816864 288.769562,375.057343 325.906616,376.152802 
	C340.634308,376.587219 355.517761,377.037384 369.820892,381.737000 
	C382.021698,385.745911 389.259766,394.027161 392.274780,406.310059 
	C395.157990,418.056061 395.027710,430.042023 395.266052,442.013428 
	C395.518433,454.691711 396.008881,467.470367 401.323212,479.218079 
	C412.747131,504.471405 432.888733,520.281128 458.176300,530.190491 
	C463.150391,532.139709 467.072052,529.771790 470.164246,526.255493 
	C476.319031,519.256592 482.152985,511.976715 488.180786,504.864807 
	C495.640045,496.063995 504.440765,488.609528 512.856140,480.795532 
	C538.071838,457.381836 557.515442,430.173828 568.719055,397.417389 
	C575.272522,378.256714 578.821289,358.465393 579.708618,338.307465 
	C580.184692,327.492493 581.098511,316.725189 581.821777,305.938690 
	C582.099792,301.792480 583.845886,298.128601 587.929382,296.306488 
	C591.873169,294.546722 595.026794,296.478271 597.914978,298.972015 
	C607.543335,307.285492 619.172974,311.130615 631.268799,313.915833 
	C654.750793,319.322968 678.795593,322.640106 701.031616,332.669495 
	C714.646118,338.810211 726.759399,346.742523 733.998230,360.468018 
	C738.892334,369.747559 740.535217,379.698425 739.508118,389.992004 
	C737.054504,414.580658 733.104004,438.848694 722.719177,461.600983 
	C716.965454,474.206818 710.086426,486.199738 702.784302,497.938660 
	C690.820923,517.170959 683.873230,538.245239 679.364563,560.242371 
	C672.562744,593.427490 657.003113,622.360107 636.799683,649.155029 
	C617.234924,675.103149 593.823120,697.352112 570.286560,719.525818 
	C561.316223,727.976746 552.546692,736.656006 546.194641,747.420898 
	C538.928650,759.734619 534.700500,772.828186 535.140259,787.285461 
	C535.581482,801.790344 535.657593,816.241516 530.979553,830.305420 
	C524.668396,849.279297 514.063599,865.691895 501.398895,880.898315 
	C489.992737,894.593872 478.451385,908.177368 466.896759,921.748169 
	C465.548004,923.332397 464.443634,925.330872 461.723022,926.183716 
	C461.774048,923.052124 463.772644,921.200500 465.289978,919.283264 
	C477.281311,904.129700 489.737732,889.328186 501.311279,873.864624 
	C512.932251,858.337769 522.789124,841.691589 526.861633,822.354980 
	C530.185242,806.574280 529.043762,790.956604 524.320496,775.576233 
	C519.493347,759.857605 512.797668,744.768799 508.505829,728.872253 
	C503.819000,711.512817 500.760101,693.900452 499.212463,675.944702 
	C497.912292,660.859680 492.791534,646.838257 484.451385,634.066345 
	C471.905121,614.853149 453.289673,604.752991 431.981750,598.285278 
	C414.912964,593.104248 397.423004,589.759705 380.123077,585.608337 
	C329.279968,573.407959 288.242462,545.984131 254.914230,506.216614 
	C244.203262,493.436218 232.870667,481.266327 219.526367,471.063080 
	C205.000763,459.956451 188.192307,454.477417 170.807693,450.155426 
	C155.160599,446.265381 141.638351,438.806366 131.765213,425.738739 
	C119.608925,409.649139 103.117676,401.947784 83.445915,400.197571 
	C81.057022,399.985046 78.965149,399.063812 76.823532,398.113434 
	C70.040222,395.103180 64.026596,396.904022 59.777821,403.112946 
	C59.590214,403.387085 59.466900,403.820404 59.213249,403.917633 
	C48.138676,408.161774 50.649624,418.983154 48.680923,427.124817 
	C43.562172,448.293549 41.930977,470.060486 40.509586,491.738678 
	C39.563248,506.171783 39.811947,520.694763 41.531689,535.145447 
	C42.453693,542.892883 42.428539,550.759705 43.487385,558.482605 
	C45.060177,569.954163 46.966133,581.394348 49.177753,592.760742 
	C52.951305,612.154541 58.078598,631.222656 64.581734,649.878052 
	C76.845947,685.060059 93.282234,718.205688 113.911484,749.246765 
	C117.690773,754.933594 121.686348,760.476379 125.558594,766.101807 
	C127.177673,768.453918 129.023514,770.318481 131.720016,771.683105 
	C137.141068,774.426392 137.728775,778.418274 133.728317,781.785522 
	C132.073990,783.177917 130.332504,784.182129 128.397278,782.509216 
	C126.564796,780.925049 123.801239,779.303162 125.349731,776.431396 
	C126.732651,773.866577 125.609016,772.489075 124.242584,770.721436 
	C114.752464,758.444519 106.175629,745.544617 97.993431,731.939575 
M639.857605,615.385132 
	C641.404663,613.216370 643.008301,611.085510 644.490295,608.873108 
	C662.900024,581.389465 674.286255,551.016724 681.737122,518.968079 
	C686.375366,499.017700 694.722107,480.653076 705.259216,463.049530 
	C716.280212,444.637329 727.031555,425.907532 731.011047,404.344025 
	C733.100525,393.021149 734.542786,381.675659 730.904419,370.317932 
	C725.915222,354.743469 714.922791,345.037323 700.495728,338.465302 
	C680.909058,329.542908 660.006958,325.412476 639.101685,321.202576 
	C625.217834,318.406647 611.441772,315.172333 598.894714,308.204315 
	C592.211365,304.492645 590.401489,305.453033 589.455200,313.302338 
	C589.375793,313.961578 589.403564,314.633514 589.376038,315.299316 
	C588.365540,339.783203 585.857483,364.034637 579.286804,387.769897 
	C569.496765,423.134644 551.293884,453.434296 525.090576,478.994995 
	C511.741455,492.016785 497.426819,504.061127 485.353973,518.371948 
	C481.382416,523.079651 477.572998,527.946167 473.329712,532.397156 
	C467.843842,538.151306 461.491547,539.900391 453.913940,535.983398 
	C442.520966,530.094177 430.923737,524.595154 420.177094,517.532288 
	C404.224945,507.048340 393.712036,492.869293 390.841858,473.679657 
	C388.671112,459.166260 388.070679,444.511719 387.892181,429.867798 
	C387.805939,422.792175 386.621826,415.972656 385.165833,409.134155 
	C382.356659,395.939941 374.013733,388.216339 361.098877,385.443115 
	C349.343018,382.918732 337.359985,382.062469 325.359314,382.288574 
	C290.247620,382.950012 255.111679,380.496429 220.001923,384.042358 
	C206.455383,385.410492 193.016037,387.426117 179.603760,389.449432 
	C173.744553,390.333344 168.714478,390.051758 163.138611,388.606232 
	C158.937653,387.517151 153.802704,386.263794 150.616318,391.558990 
	C149.908447,392.735382 148.254974,392.608063 147.052963,393.107880 
	C139.096466,396.416534 129.105316,393.502686 122.874557,401.672516 
	C122.952309,401.767944 123.965256,402.637573 123.827477,402.897705 
	C121.411453,407.459137 125.405510,409.455811 127.552292,411.990204 
	C130.776993,415.797028 134.553345,419.141052 137.727249,422.985596 
	C148.773926,436.366333 163.245880,443.565063 179.995102,446.542480 
	C198.737854,449.874298 215.591507,457.057648 230.243988,469.426971 
	C244.223495,481.228241 255.593307,495.398804 267.298767,509.269653 
	C289.776001,535.905029 316.104187,557.402710 348.611053,570.728699 
	C370.144135,579.556030 393.060486,583.250549 415.523773,588.623779 
	C433.873535,593.012939 451.899963,598.081055 467.709412,609.121277 
	C484.363556,620.751343 495.628815,636.048523 500.752411,655.697021 
	C503.785034,667.326843 504.283081,679.335510 505.722473,691.219421 
	C508.126007,711.064087 513.176392,730.393860 520.631226,749.040527 
	C523.658386,756.612366 526.236511,764.363831 529.018921,772.033508 
	C529.742126,767.651917 529.525879,763.479553 529.779663,759.336060 
	C530.863831,741.635376 535.698120,725.302917 547.418762,711.476440 
	C555.534973,701.901917 564.834229,693.571472 574.280945,685.382812 
	C598.389404,664.485291 621.048523,642.230103 639.857605,615.385132 
z"/>
<path fill="#000000" opacity="1.000000" stroke="#000000" stroke-width="8" stroke-linejoin="round" 
	d="
M688.787598,125.231018 
	C658.951416,108.552330 627.849670,96.172478 594.780212,88.847679 
	C588.939514,87.553970 583.195129,85.825699 577.406555,84.296928 
	C576.104248,83.952995 574.772034,83.639488 574.673828,81.917366 
	C588.188416,74.340996 685.183838,112.694778 729.187744,143.341553 
	C784.287170,181.715897 824.590637,232.300476 851.765381,293.506836 
	C857.981384,307.507263 863.725403,321.708374 866.367798,336.953857 
	C862.478333,334.976807 861.629272,331.127472 860.497192,327.749115 
	C841.303284,270.474457 806.881897,223.279556 763.981567,181.707077 
	C741.391602,159.816284 716.431519,141.030762 688.787598,125.231018 
z"/>
<path fill="#000000" opacity="1.000000" stroke="#000000" stroke-width="8" stroke-linejoin="round" 
	d="
M433.311829,974.613220 
	C437.820801,975.551941 438.797028,977.840393 436.921021,981.571167 
	C436.107666,983.188538 435.469788,984.902344 434.854309,986.609192 
	C433.919647,989.201355 432.009094,989.553894 429.660675,989.026062 
	C429.338654,988.953674 429.027679,988.833557 428.708191,988.748230 
	C419.184998,986.204834 417.873566,982.466736 423.489044,974.234314 
	C424.644562,972.540222 426.065369,972.277527 427.775665,972.768250 
	C429.519989,973.268738 431.215790,973.938354 433.311829,974.613220 
z"/>
<path fill="#000000" opacity="1.000000" stroke="#000000" stroke-width="8" stroke-linejoin="round" 
	d="
M442.078613,77.354630 
	C438.820068,77.564362 436.011230,77.854889 433.196442,77.933205 
	C431.679199,77.975418 430.022736,77.636147 429.855286,75.715645 
	C429.717224,74.132088 431.041473,73.228516 432.338409,73.040459 
	C440.353546,71.878265 448.374847,70.716721 456.428131,69.884438 
	C458.799896,69.639328 461.210754,70.885483 461.524170,73.651093 
	C461.835358,76.397224 459.477997,77.242683 457.366821,77.782158 
	C452.400391,79.051262 447.484985,77.199623 442.078613,77.354630 
z"/>
</svg>