<svg version="1.1" id="Layer_1" xmlns="http://www.w3.org/2000/svg" xmlns:xlink="http://www.w3.org/1999/xlink" x="0px" y="0px"
	 width="100%" viewBox="0 0 976 656" enable-background="new 0 0 976 656" xml:space="preserve">
<path fill="#000000" opacity="1.000000" stroke="none" 
	d="
M175.369904,288.628601 
	C166.632706,286.429657 158.271957,284.367371 149.853149,282.290771 
	C148.653381,284.558258 149.369400,286.737640 149.322601,288.814606 
	C148.557159,322.790039 147.384369,356.776520 148.426239,390.750916 
	C149.156891,414.577271 149.601089,438.395752 148.944534,462.208130 
	C148.540405,476.865143 148.056885,491.512085 148.313599,506.171295 
	C148.395065,510.823944 149.194031,515.473083 149.125687,520.115906 
	C149.084534,522.912537 151.374908,523.033325 153.004608,524.297180 
	C152.204910,526.650635 151.439438,528.804260 150.743484,530.979980 
	C150.065842,533.098511 149.244873,534.667664 146.495285,533.531921 
	C144.367981,532.653198 142.650497,534.105530 140.965500,535.136414 
	C119.512306,548.261719 96.601364,558.797729 75.262482,572.126221 
	C74.444359,572.637268 73.572006,573.286743 72.228226,572.375793 
	C71.701912,570.380981 73.454277,569.767090 74.791023,569.016663 
	C85.243774,563.148621 95.606644,557.106995 106.214005,551.531311 
	C118.905594,544.860046 131.092987,537.335449 143.532379,530.239380 
	C145.447311,529.147034 146.593460,528.080383 146.268875,525.588379 
	C143.261063,502.495483 145.715500,479.355164 145.761658,456.232849 
	C145.802582,435.735687 146.348099,415.209076 145.447525,394.749268 
	C144.589111,375.247375 144.552170,355.766357 144.953186,336.293060 
	C145.299515,319.475769 145.907120,302.667084 145.822296,285.839691 
	C145.791824,279.795166 148.179886,278.406372 154.173279,280.094879 
	C163.936020,282.845337 173.767654,285.352051 183.523376,288.126343 
	C186.709671,289.032501 187.887589,288.111786 187.729553,284.894104 
	C187.017059,270.387848 188.763260,255.932175 188.687943,241.440918 
	C188.596512,223.849503 188.288849,206.255264 189.525421,188.689682 
	C189.767166,185.255875 187.142654,183.409470 185.627136,180.918533 
	C189.613815,179.153397 192.925552,181.344009 196.465958,181.923584 
	C208.043762,183.818939 219.747665,183.137848 231.367310,182.554337 
	C248.149124,181.711609 264.909943,180.419022 281.726196,180.639404 
	C321.183533,181.156464 360.602203,183.522980 400.085388,182.939453 
	C443.899902,182.291916 487.727325,182.168121 531.531189,181.350540 
	C553.658264,180.937531 575.835999,180.246552 597.939331,180.331863 
	C632.573792,180.465530 667.234009,180.072678 701.867798,181.427048 
	C709.662964,181.731888 717.500671,181.046448 725.315369,180.731506 
	C734.823792,180.348282 744.259460,181.342560 753.687927,182.264282 
	C755.990845,182.489395 757.588745,181.581421 759.166016,180.441101 
	C788.892151,158.949860 821.360474,141.720505 851.562866,120.961304 
	C859.785950,115.309227 868.504578,110.381927 876.431396,104.267632 
	C877.670288,103.312019 879.099670,102.094643 882.055054,104.206886 
	C843.241882,132.808136 800.696472,154.808716 761.485596,182.346497 
	C764.320618,185.492188 769.106079,183.852097 771.207825,187.307373 
	C770.295959,189.507080 768.655273,188.621567 767.325684,188.336395 
	C763.178284,187.446838 759.165710,185.129272 754.765625,187.403351 
	C754.397522,187.593613 753.651550,187.517532 753.326721,187.257919 
	C746.850891,182.082947 739.214966,184.365417 732.120972,184.286270 
	C703.793152,183.970169 675.448425,184.605896 647.132935,183.928070 
	C624.641357,183.389664 602.152893,182.767838 579.674927,183.364853 
	C558.853455,183.917847 538.009521,183.613861 517.218689,184.508942 
	C494.060059,185.505966 470.906189,184.653687 447.772369,185.403275 
	C416.457886,186.417938 385.141418,186.604904 353.830078,186.097610 
	C333.877563,185.774353 313.938599,184.508362 293.998383,183.563309 
	C277.009033,182.758102 260.084839,183.941727 243.149368,184.944702 
	C228.859344,185.791016 214.575699,186.788208 200.238373,186.278305 
	C194.674133,186.080399 192.468063,188.501312 192.321793,194.086182 
	C192.042908,204.733688 191.515396,215.375809 191.330704,226.024323 
	C191.199112,233.611969 191.831345,234.132996 199.265579,235.119858 
	C208.654205,236.366150 217.980240,236.244141 227.490173,235.881317 
	C240.147659,235.398392 253.035019,235.066559 265.686096,237.294449 
	C269.231354,237.918793 272.648285,237.172073 276.126862,237.019974 
	C279.790131,236.859787 277.947357,232.721939 280.164612,231.551895 
	C283.751495,236.480453 283.761841,236.756897 290.769043,236.494873 
	C306.575684,235.903732 322.360352,234.666855 338.195343,234.998383 
	C340.694611,235.050720 342.479218,233.345947 344.682861,232.513245 
	C348.727264,236.509583 354.056580,235.172028 358.825623,235.695419 
	C372.349457,237.179657 385.713226,234.513092 399.107269,233.258804 
	C426.846985,230.661041 454.591980,229.692535 482.418274,231.446503 
	C491.888580,232.043457 501.383453,232.076599 510.868286,232.544006 
	C545.129150,234.232346 579.406982,235.721741 613.734009,235.052124 
	C617.332397,234.981949 620.681946,235.033798 622.596924,231.383469 
	C629.820862,236.887756 659.675293,237.389282 662.767334,231.836212 
	C664.189148,234.605911 666.000671,235.928040 669.333130,235.851089 
	C692.981934,235.304916 716.654541,235.484283 740.283813,234.538147 
	C750.966064,234.110413 761.551208,234.369949 772.176086,234.917892 
	C773.639099,234.993332 775.314331,234.709320 776.203918,236.261688 
	C776.434753,236.664474 776.178528,237.646835 775.805725,238.040909 
	C774.475220,239.447220 772.972534,238.475266 771.651855,237.972992 
	C769.701477,237.231247 767.716309,237.357132 765.729919,237.355469 
	C743.231445,237.336670 720.722778,236.939819 698.239075,237.513947 
	C688.276062,237.768372 678.303833,238.407791 668.322754,238.380493 
	C664.939880,238.371246 664.271606,240.176849 664.042114,243.104141 
	C661.776428,272.003662 661.049988,300.952850 661.020081,329.927979 
	C661.017029,332.898285 661.019653,335.868591 661.019653,339.265015 
	C666.635132,340.741547 672.276123,338.490356 677.975037,338.294342 
	C694.602356,337.722229 711.201416,336.352783 727.870789,337.315338 
	C735.325439,337.745819 742.817566,337.680145 750.290161,337.601166 
	C756.810730,337.532227 763.295227,337.819397 769.649902,339.237183 
	C772.834839,339.947723 773.585999,338.833313 774.138733,335.889923 
	C776.583923,322.869812 776.095337,309.667114 776.495605,296.563995 
	C777.019104,279.426178 777.404785,262.252625 776.682861,245.093079 
	C776.609985,243.362045 776.108765,241.445572 777.858215,240.120316 
	C780.806213,240.977142 780.159790,243.311157 780.139648,245.128693 
	C779.797668,276.084595 779.645752,307.024261 776.645813,337.911652 
	C775.087952,353.951599 775.603577,370.185181 774.920959,386.320190 
	C774.288330,401.273560 774.662781,416.211090 775.061157,431.152802 
	C775.109558,432.968475 774.511475,435.762848 777.595520,435.591064 
	C780.607971,435.423279 779.656372,432.659698 779.782776,430.851776 
	C780.289307,423.610809 779.158569,416.248322 781.530518,409.130615 
	C782.906738,422.709106 781.982178,436.280334 781.153137,449.853149 
	C783.063782,443.753021 782.331848,437.319061 783.984375,431.207275 
	C783.173767,448.038483 783.953552,464.955536 780.466553,482.442841 
	C778.404480,479.631561 777.281311,477.453735 777.306519,474.463013 
	C777.394836,463.981628 779.419556,453.612213 779.001587,443.107697 
	C778.944824,441.680542 779.789734,439.779846 777.507141,439.592010 
	C774.912354,439.378418 775.240540,441.537903 775.292603,443.132507 
	C775.829773,459.592468 776.413879,476.050934 777.311096,492.538422 
	C778.274597,490.102142 776.789124,486.849548 780.185181,485.023865 
	C781.280701,487.429749 780.265625,489.552734 779.992432,491.532959 
	C778.945312,499.123657 778.511658,506.720062 778.979919,514.358643 
	C779.134521,516.880920 777.517761,518.629395 776.770630,520.739746 
	C775.214417,525.135437 774.823914,529.837891 775.640198,534.521118 
	C775.916870,536.108215 776.814209,537.672119 775.479553,539.274475 
	C772.923645,538.557190 773.069458,536.408081 772.895996,534.472717 
	C772.476379,529.790100 772.873901,525.123230 773.830139,520.562988 
	C774.661560,516.597534 772.868958,515.369629 769.401611,515.358154 
	C763.069702,515.337219 756.698792,514.893677 750.412537,515.429077 
	C727.095459,517.415222 703.814392,515.200684 680.518555,515.210754 
	C675.848511,515.212769 671.217773,515.555786 666.566101,515.966736 
	C663.284485,516.256653 662.243835,517.423279 662.413635,520.590576 
	C663.019531,531.892334 663.464111,543.202759 663.961060,554.510254 
	C664.004944,555.508606 663.989563,556.509644 663.996582,557.509460 
	C664.051147,565.284912 663.062317,566.154968 655.361816,565.049194 
	C654.396667,564.910522 653.449097,564.649536 652.523010,564.451538 
	C650.913513,566.221924 651.359619,567.917175 652.087036,569.670288 
	C652.632385,570.984741 653.878540,572.779602 651.675049,573.384216 
	C649.434998,573.998840 649.039368,571.853271 648.823364,570.212830 
	C648.368042,566.753845 647.939575,563.282349 647.733337,559.802185 
	C647.553101,556.761230 645.934387,555.842834 643.353394,555.855591 
	C641.656067,557.760559 644.380310,560.405823 641.914429,561.936646 
	C638.702820,561.012695 640.749756,557.658386 639.502808,556.508911 
	C625.980652,556.508911 612.881470,556.387146 599.787292,556.590454 
	C596.309143,556.644470 596.805420,560.124023 596.442749,562.375549 
	C595.827820,566.194214 596.681396,570.235840 594.877075,574.460388 
	C591.022156,571.708435 593.022400,568.501526 593.316711,565.754150 
	C593.630859,562.820923 595.046570,559.990356 594.007080,556.949829 
	C591.739929,557.066528 591.739929,557.066528 587.483643,565.597473 
	C582.840515,564.510376 583.643188,560.634888 583.312866,557.317688 
	C579.198364,556.334717 577.655029,558.084961 578.233032,562.025330 
	C578.715454,565.314087 579.274414,568.593079 579.878845,571.861755 
	C580.143433,573.293091 580.300537,574.711121 578.463745,574.931396 
	C576.554688,575.160400 576.363464,573.733826 576.525146,572.268494 
	C577.180542,566.327820 572.984314,562.032959 571.247253,556.905029 
	C570.714294,555.331726 568.795959,555.451660 567.282837,555.408875 
	C555.472656,555.075134 543.663391,554.711304 531.852356,554.411377 
	C526.575012,554.277405 524.367554,557.115906 525.762756,562.328552 
	C526.144409,563.754456 527.268311,565.039673 525.743835,566.382385 
	C525.075317,566.971252 524.210938,567.266785 523.466553,566.719177 
	C521.910645,565.574463 521.789673,563.842590 522.235535,562.192383 
	C525.800232,549.000427 526.289001,535.296936 528.973755,521.974731 
	C530.526184,514.271423 530.969604,506.498413 531.704895,498.733978 
	C531.853516,497.165222 532.382263,495.392487 529.924988,493.304840 
	C521.611206,517.829773 524.654724,543.602966 518.189880,567.511597 
	C519.229187,569.102051 521.188599,567.379517 521.891296,569.643250 
	C521.448303,571.925720 520.093689,573.974060 517.077881,575.660522 
	C514.716248,570.484070 516.461853,565.498291 517.193542,560.919312 
	C517.915161,556.402771 516.755676,554.905701 512.597229,554.220703 
	C501.658752,552.418884 490.659363,553.541870 479.692932,553.251404 
	C457.047943,552.651733 434.423920,555.343628 411.766937,553.726440 
	C407.170349,553.398376 402.559814,553.265564 397.512360,553.021301 
	C399.070862,550.192078 401.290009,551.040039 403.033630,551.031311 
	C421.860809,550.936890 440.688629,550.890686 459.515930,550.947266 
	C466.850433,550.969299 474.129822,550.479309 481.442200,549.923767 
	C492.080841,549.115601 502.704834,550.657593 513.321960,551.458740 
	C515.207153,551.601074 517.936401,552.664368 518.290955,549.872742 
	C518.729004,546.424316 515.474426,547.285400 513.579102,547.176636 
	C488.108307,545.714722 462.602997,546.685059 437.119019,546.161072 
	C423.491272,545.880859 409.876556,544.894043 396.249115,544.695190 
	C386.293457,544.549927 376.322327,545.065430 366.365692,545.472412 
	C349.416748,546.165100 332.537048,548.262573 315.535950,547.985046 
	C314.003235,547.960083 312.154694,547.428467 310.550659,550.086548 
	C324.630432,552.333984 338.212433,549.515503 351.763855,549.701355 
	C365.445099,549.888916 379.038330,551.500977 392.648499,550.958008 
	C392.740906,553.123901 391.929962,553.212341 391.361298,553.209106 
	C380.367035,553.146423 369.371765,552.885315 358.379303,552.977661 
	C343.756165,553.100525 329.135010,553.480652 314.513916,553.792419 
	C313.552429,553.812927 312.541687,554.032104 311.948578,555.031982 
	C308.302429,561.178894 303.078522,565.181030 295.898132,565.998779 
	C293.702301,566.248840 293.372894,568.569519 291.340912,568.920898 
	C289.307251,567.174988 288.947113,564.683777 288.917358,562.256348 
	C288.748199,548.462097 288.723358,534.666138 288.599670,520.871216 
	C288.545624,514.841797 287.366638,513.130005 281.351013,513.156921 
	C266.372742,513.223999 251.403473,512.827087 236.403870,513.732849 
	C223.511520,514.511353 210.557114,516.131470 197.573166,514.350464 
	C194.599838,513.942627 190.802765,513.180176 191.193695,518.498657 
	C191.255585,519.340698 190.508331,519.991882 189.512421,519.959778 
	C188.509521,519.927490 187.895920,519.222900 187.916199,518.377075 
	C188.023972,513.877563 184.875305,513.413086 181.574875,513.146912 
	C172.618668,512.424500 163.656876,511.769196 154.704880,510.999054 
	C152.824127,510.837219 150.656860,511.037079 149.271973,508.444305 
	C155.629883,506.109253 153.585342,500.720123 153.791031,496.088287 
	C154.463028,480.955841 155.499313,465.827057 155.673920,450.688507 
	C155.863708,434.234863 155.112198,417.772614 155.025650,401.312775 
	C154.964462,389.670898 155.503128,378.026154 155.462036,366.383759 
	C155.385040,344.568451 155.059570,322.754089 154.899414,300.938904 
	C154.878250,298.053436 154.218277,294.936279 156.573212,292.551025 
	C158.456955,292.872192 158.179413,294.193726 158.179413,295.306122 
	C158.178818,350.462036 158.275589,405.618317 158.077515,460.773560 
	C158.030899,473.749054 157.132797,486.730133 156.325836,499.689941 
	C156.009171,504.775604 156.957993,507.780823 162.826019,508.524017 
	C170.729553,509.525024 178.567474,510.759308 186.668747,510.501221 
	C186.668747,505.048279 186.499329,499.938873 186.696259,494.843628 
	C187.970184,461.883453 185.457092,428.899384 187.011459,395.969818 
	C187.899216,377.162384 187.728485,358.344055 188.207291,339.547852 
	C188.566315,325.454590 189.421036,311.288483 188.770859,297.140991 
	C188.631851,294.116547 187.565491,292.628845 184.694748,291.864014 
	C181.652679,291.053589 178.724365,289.816162 175.369904,288.628601 
M620.887573,302.751099 
	C621.664795,295.967316 621.512756,289.182068 621.314148,282.363098 
	C620.931091,269.211823 620.870422,256.049103 620.847961,242.890854 
	C620.842285,239.576859 619.934326,237.874390 616.318604,238.127747 
	C611.489868,238.466110 606.663513,237.393936 601.886047,237.467896 
	C569.409668,237.970612 536.985352,236.582993 504.552185,235.322647 
	C489.242035,234.727676 473.827637,235.321518 458.628662,233.749893 
	C441.010681,231.928162 423.777496,235.087509 406.366577,235.653534 
	C388.962830,236.219330 371.726990,240.061127 354.168152,238.308212 
	C347.779205,237.670410 345.860504,239.492874 345.490936,246.144272 
	C345.214386,251.120850 345.629547,256.132477 345.456085,261.118774 
	C344.831146,279.081787 344.154877,297.043610 343.370392,315.000305 
	C342.488831,335.177582 345.264038,355.215088 345.479858,375.343964 
	C345.517578,378.858063 347.185089,380.057404 350.267151,380.356323 
	C363.580444,381.647583 376.926239,381.223846 390.182037,380.126617 
	C404.923767,378.906372 419.612061,376.761719 434.427948,376.999969 
	C443.729614,377.149506 453.007843,378.585358 462.311554,378.802368 
	C494.444244,379.551819 526.583984,378.179199 558.737610,379.706543 
	C576.479980,380.549255 594.323914,379.237152 612.122559,378.922913 
	C615.822021,378.857605 619.938660,379.885162 621.323059,373.864227 
	C622.452515,377.259216 623.247009,379.647583 624.023254,381.980896 
	C622.684143,383.860474 621.126648,383.151855 619.467285,382.813080 
	C614.075195,381.712189 608.648193,381.152405 603.103333,381.553711 
	C586.655151,382.744019 570.162109,383.330017 553.695251,382.654633 
	C542.554138,382.197723 531.442627,381.150787 520.265198,381.296417 
	C508.269043,381.452728 496.267517,381.493744 484.272034,381.324097 
	C472.289459,381.154633 460.319336,381.454163 448.316681,380.678284 
	C431.043823,379.561676 413.725677,380.159973 396.482056,382.032410 
	C381.733398,383.633911 366.947632,384.674530 352.109528,383.851868 
	C346.103882,383.518921 345.972076,383.277496 346.160645,389.461060 
	C346.480804,399.958496 346.450806,410.458221 345.625458,420.913574 
	C345.269775,425.419495 346.618896,427.049561 351.033142,426.835602 
	C360.840637,426.360168 370.655212,426.004913 380.470398,425.719879 
	C409.294098,424.882812 438.079193,427.384430 466.900543,426.753021 
	C468.632324,426.715088 470.582855,427.408356 472.287140,425.536835 
	C469.526093,421.808838 473.156830,418.225128 472.594086,414.177917 
	C471.847351,408.807098 472.583252,403.224701 472.753876,397.735443 
	C472.798126,396.311890 473.333344,394.908936 475.123108,395.324982 
	C476.436768,395.630341 478.050629,396.866638 477.372803,398.118439 
	C474.443848,403.526947 477.903442,408.960724 476.948792,414.321808 
	C476.562103,416.493408 477.206726,418.448486 479.162903,419.445770 
	C481.769440,420.774658 481.349854,417.204651 482.870148,416.700714 
	C484.260162,417.487000 483.160400,418.975647 484.022827,419.908539 
	C485.055573,421.025726 486.028595,422.353882 484.628326,423.843140 
	C483.517426,425.024567 482.218323,424.548340 480.931610,424.019592 
	C479.372803,423.379059 477.987030,423.304321 477.583466,425.452789 
	C478.509979,427.285858 480.196381,426.700348 481.574097,426.694519 
	C526.209717,426.506348 570.857483,427.997040 615.481201,425.720520 
	C618.788269,425.551788 619.852783,424.389069 619.777649,421.245117 
	C619.646362,415.750641 619.700195,410.248047 619.838501,404.752899 
	C619.884766,402.911743 619.388855,400.722748 622.774231,398.741882 
	C622.297424,411.595734 621.829041,423.722687 624.082092,435.881104 
	C627.252380,435.881104 630.415710,435.788605 633.570679,435.911041 
	C635.988892,436.004883 638.400452,435.456909 640.732483,437.190460 
	C646.149536,441.217346 652.917786,441.720581 659.745667,444.604218 
	C659.926636,436.252380 655.648499,428.817047 659.883240,421.411591 
	C660.388062,430.421143 660.892883,439.430695 661.404236,448.556213 
	C663.910767,447.992126 663.834412,446.349762 663.775085,444.910767 
	C663.652222,441.928711 663.838562,438.811890 663.016357,436.008972 
	C661.748352,431.686188 663.617065,431.696686 666.732666,432.565887 
	C668.949585,433.184418 670.696960,434.883698 673.236572,434.874298 
	C691.565735,434.806335 709.895386,434.858856 728.224854,434.850128 
	C730.145935,434.849213 731.980957,434.598755 731.730774,431.968994 
	C730.691833,430.994629 729.469604,431.214661 728.345703,431.219940 
	C715.515381,431.280334 702.680481,431.621948 689.856812,431.372894 
	C682.211121,431.224365 674.585083,433.124664 666.946411,431.474609 
	C665.311462,431.121429 663.135132,431.537231 663.177002,428.402435 
	C687.306885,429.607208 711.276428,428.806519 734.731445,427.773743 
	C736.385498,430.217896 733.754822,433.141754 738.181396,434.190643 
	C738.181396,423.395233 738.181396,412.850525 738.181396,401.226501 
	C740.798218,403.805664 740.227417,405.732147 740.261841,407.449738 
	C740.418457,415.278015 740.498779,423.108643 740.504883,430.938507 
	C740.506409,432.888855 740.359131,434.450989 742.991516,434.905243 
	C752.871948,436.610291 762.740845,435.800720 773.081909,435.730438 
	C771.468811,430.348267 771.932068,425.507263 771.883423,420.707092 
	C771.642212,396.892090 771.176514,373.058411 773.565369,349.320374 
	C774.035828,344.645721 772.961060,342.451782 768.259399,341.871307 
	C757.389648,340.529327 746.569702,339.248077 735.542175,339.390259 
	C714.252258,339.664825 692.903198,338.246613 671.769470,341.897400 
	C668.133972,342.525421 663.374023,340.268951 661.040161,344.028931 
	C659.057739,347.222687 660.402222,351.523132 660.338562,355.326904 
	C660.195496,363.876709 660.276672,363.878235 669.003357,363.915833 
	C669.669922,363.918701 670.337708,363.890717 671.002869,363.921814 
	C691.851440,364.896301 712.548462,361.310791 733.374817,361.882782 
	C735.741150,361.947784 736.747986,360.280731 738.275330,359.211731 
	C738.908264,360.229279 739.230347,361.421295 739.956238,361.768097 
	C741.308289,362.414001 743.602661,361.649353 743.451782,364.265289 
	C743.304382,366.820709 740.590149,365.206421 738.975464,367.207397 
	C738.975464,373.645752 738.975464,380.827515 738.975464,388.009247 
	C736.160339,382.943451 737.049866,377.615356 736.921082,372.405029 
	C736.745117,365.287048 736.851074,365.212463 729.687195,365.222626 
	C708.873169,365.252228 688.085876,367.034637 667.266235,366.304871 
	C662.810852,366.148712 660.617859,367.561493 660.824829,372.281372 
	C662.026245,373.264526 664.729797,372.998322 664.761841,375.235748 
	C664.845459,381.077667 668.801208,380.797455 672.744629,380.600739 
	C690.697021,379.705292 708.630554,378.035309 726.636169,379.445984 
	C727.748962,379.533173 728.960388,379.165344 730.033447,378.762695 
	C731.520142,378.204834 732.825134,376.775574 734.419861,378.689667 
	C735.708069,380.235931 735.667969,381.607086 735.365540,383.639099 
	C733.749878,394.494171 732.850220,405.548309 735.570007,416.234955 
	C736.713989,420.729584 735.848755,420.642212 732.302124,420.345367 
	C724.842651,419.721008 717.362305,419.342133 709.887939,418.906860 
	C709.475464,418.882843 709.039368,419.263672 708.723389,419.406677 
	C708.040771,421.033417 710.396973,422.201660 708.826477,423.997772 
	C704.689819,424.577087 700.153870,424.329132 695.821289,425.603851 
	C694.231079,426.071686 693.218811,425.290131 692.987915,423.686951 
	C692.761658,422.116119 693.009888,420.689941 694.707581,419.948669 
	C695.872192,419.440125 697.384521,420.241638 698.852783,418.407806 
	C686.429810,418.948486 674.538940,416.982971 662.629272,418.552490 
	C660.277344,418.862427 658.696838,418.885590 658.589478,415.412476 
	C660.875671,415.091888 662.771240,414.435944 662.770996,411.277496 
	C662.770081,399.951416 661.347412,388.747772 660.575134,377.491699 
	C659.823364,382.705383 660.859375,388.008484 659.588562,393.819061 
	C657.642822,391.692078 657.947693,389.654694 657.936279,387.764069 
	C657.855713,374.454681 657.818115,361.145050 657.779358,347.835480 
	C657.772827,345.590668 657.898560,343.320831 654.640076,343.337891 
	C644.706970,343.389862 634.823669,344.784088 624.937805,343.801422 
	C622.858643,353.412872 623.758911,362.757660 622.749390,371.864380 
	C622.127197,371.813202 621.505005,371.762024 620.882812,371.710846 
	C620.882812,349.039551 620.882812,326.368256 620.887573,302.751099 
M473.500977,467.333862 
	C449.733032,466.329559 425.963684,465.357361 402.197540,464.312164 
	C377.035126,463.205597 352.007935,467.124847 326.851349,466.273407 
	C321.588593,466.095276 316.314636,466.247498 310.715973,466.247498 
	C310.423340,478.638977 308.522430,491.102112 310.584259,503.809082 
	C312.186157,513.681702 310.312439,523.713318 309.453644,533.666687 
	C308.837982,540.802490 312.534424,544.633667 319.752014,544.930786 
	C323.737701,545.094849 327.746490,544.942078 331.735382,544.742493 
	C350.500122,543.803711 369.203522,541.877075 388.015442,541.618835 
	C406.010742,541.371826 423.932739,543.101440 441.933167,542.996460 
	C465.737213,542.857605 489.547272,543.511414 513.352112,543.965088 
	C517.655945,544.047119 519.323303,542.730713 519.897400,538.124390 
	C521.044800,528.917908 521.792358,519.659302 523.199341,510.460236 
	C524.355713,502.899963 526.265259,494.611603 521.442505,487.165710 
	C520.775024,486.135193 521.431274,484.824341 522.382751,484.035553 
	C528.215210,479.200745 529.392578,470.792969 536.333130,466.656433 
	C515.446838,468.130676 494.965424,467.149689 473.500977,467.333862 
M279.477295,438.432404 
	C279.066132,408.275726 281.134399,378.154968 280.802612,347.993225 
	C280.748871,343.105103 279.023529,341.360931 274.539276,341.457123 
	C249.920532,341.985260 225.371307,339.324432 200.754623,339.830597 
	C191.402740,340.022888 191.341278,340.093475 191.104385,349.298981 
	C190.440674,375.090088 189.898666,400.884552 189.131714,426.672455 
	C189.022308,430.351318 190.136551,431.676361 193.810349,431.849365 
	C202.446762,432.256073 211.073364,432.944183 219.688736,433.693085 
	C223.675079,434.039642 224.822861,432.531952 224.754456,428.575134 
	C224.342804,404.758026 225.190308,380.951416 225.762802,357.144165 
	C225.804398,355.414734 225.004028,353.191406 228.118912,351.538879 
	C228.869659,384.272247 226.784576,416.297943 226.234146,448.370789 
	C224.379837,446.285980 224.902908,443.935028 225.048462,441.751495 
	C225.319260,437.688843 223.838669,436.141937 219.631653,436.216949 
	C212.154068,436.350281 204.671387,436.440155 197.196671,435.316986 
	C191.292664,434.429840 190.660263,435.603943 190.133698,441.824799 
	C188.805435,457.516693 192.708984,473.217072 189.810547,488.926483 
	C189.161514,492.444214 190.148529,496.235016 190.042618,499.890289 
	C189.948593,503.134613 191.033966,504.499298 194.419678,505.108093 
	C201.617615,506.402374 208.717194,504.780060 215.859070,505.082214 
	C231.822678,505.757599 247.794952,506.243958 263.752747,507.029785 
	C268.166473,507.247162 270.086670,506.126404 269.943176,501.282288 
	C269.133514,473.952911 272.672394,446.764130 272.834473,419.457703 
	C272.847565,417.254547 272.699982,414.823883 274.870117,413.326538 
	C276.723511,413.936279 277.183105,415.022034 276.893402,416.524170 
	C273.370972,434.787781 274.577332,453.366302 273.318329,471.781403 
	C272.604950,482.215057 271.499115,492.702301 272.889923,503.207642 
	C273.294281,506.262054 274.822784,507.056274 277.624908,506.823364 
	C280.953400,506.546722 280.450287,504.497589 280.298798,502.180573 
	C278.929291,481.228149 280.075745,460.235138 279.477295,438.432404 
M307.481171,461.824615 
	C324.430786,463.602264 341.466095,463.370331 358.386597,462.383728 
	C377.387146,461.275818 396.370148,461.189392 415.308868,461.991058 
	C441.255371,463.089386 467.210510,464.292297 493.161682,464.552917 
	C517.782166,464.800232 542.391541,462.576080 567.045227,462.683624 
	C592.870667,462.796295 618.697205,462.663025 644.522644,462.776306 
	C648.715881,462.794678 653.114014,459.993347 657.186584,463.545471 
	C657.655518,463.954529 659.546448,463.654663 659.909729,463.107178 
	C661.696533,460.414703 662.563049,457.129120 662.030457,454.111694 
	C661.537903,451.320984 658.411743,452.353699 656.443176,452.411713 
	C629.968201,453.191650 603.491272,453.423340 577.003967,453.499359 
	C558.212219,453.553314 539.471497,456.082245 520.634705,455.314941 
	C518.479248,455.227173 516.134521,455.788330 514.000610,454.148773 
	C515.153137,452.748169 516.352478,452.809509 517.465332,452.812927 
	C532.795959,452.860260 548.079224,451.188782 563.382629,451.158783 
	C592.863953,451.101044 622.326416,450.430481 651.790588,449.637329 
	C653.972717,449.578583 656.234436,449.745911 659.003540,448.127716 
	C645.619324,443.549316 633.822998,436.914154 619.674133,438.234619 
	C609.584534,439.176270 599.379578,438.921478 589.224182,439.081024 
	C587.436340,439.109100 585.261414,439.744537 583.896667,437.610016 
	C585.568054,435.712067 587.662537,436.026550 589.598267,436.004608 
	C598.093445,435.908112 606.589661,435.832733 615.085083,435.861908 
	C618.000977,435.871948 619.929749,435.323059 619.663086,431.732513 
	C619.381836,427.945740 616.791565,428.789825 614.559265,428.874908 
	C602.746094,429.325165 590.932556,430.253418 579.122375,430.206696 
	C528.153137,430.005066 477.181396,430.835449 426.212646,429.380920 
	C404.237885,428.753784 382.229675,429.239716 360.237274,429.345062 
	C356.432343,429.363281 352.634644,430.067352 348.825500,430.341858 
	C346.380493,430.518066 345.859711,432.169373 345.690582,434.100952 
	C345.479156,436.515503 347.026794,436.793060 348.924347,436.653076 
	C349.969696,436.575928 350.950317,436.755981 351.179657,439.323059 
	C333.389587,438.942291 315.364899,438.071564 298.745026,449.746368 
	C354.119843,449.020081 408.284821,454.275085 462.661682,454.495544 
	C456.818573,457.900482 450.481415,457.680298 444.346588,456.950745 
	C416.834625,453.679016 389.132660,455.910431 361.549194,453.651520 
	C342.677307,452.105957 323.585815,453.273132 304.593109,453.142181 
	C301.276245,453.119324 297.957916,452.420532 294.647980,452.478394 
	C289.111023,452.575165 291.734375,456.993439 291.321594,459.610657 
	C290.908020,462.232941 293.023834,463.726288 295.037384,462.641998 
	C298.916962,460.552856 302.727478,461.818237 307.481171,461.824615 
M191.515640,310.587097 
	C191.418915,317.414978 191.491135,324.250977 191.165298,331.067902 
	C190.952560,335.518677 193.066177,336.983307 197.092621,337.054138 
	C203.739166,337.171051 210.382996,337.439392 217.028259,337.633942 
	C224.591064,337.855377 224.585922,337.849304 226.391190,330.541656 
	C226.436966,330.356323 226.926788,330.280670 227.219513,330.151123 
	C228.164948,330.539062 228.277023,331.457031 228.182648,332.209717 
	C227.623230,336.670929 229.687347,337.618500 233.911453,337.862030 
	C246.058868,338.562378 258.200806,338.662109 270.354340,338.669647 
	C282.859741,338.677399 280.643707,339.732117 280.617950,328.367981 
	C280.554626,300.413269 281.646393,272.427979 278.780273,244.528931 
	C278.542389,242.213684 278.579956,240.046585 275.509430,240.026215 
	C261.545929,239.933609 247.655167,237.526062 233.633484,238.860260 
	C230.443359,239.163834 229.330276,240.295517 229.283768,243.440720 
	C229.047546,259.418671 228.585876,275.393250 228.334915,291.371063 
	C228.185822,300.863617 228.315353,310.360260 228.231445,319.854309 
	C228.216797,321.510345 228.637024,323.407410 227.142426,324.921600 
	C225.322815,323.430878 225.885956,321.639740 225.852173,320.097443 
	C225.710007,313.603699 225.646057,307.106628 225.666840,300.611176 
	C225.725922,282.141052 225.315659,263.657043 226.928284,245.225067 
	C227.331467,240.616989 225.359650,239.161545 220.868530,239.157959 
	C212.739105,239.151474 204.539352,239.785690 196.523376,237.551163 
	C193.146591,236.609833 192.459381,238.556335 192.104919,241.612625 
	C189.471222,264.320862 191.694031,287.052277 191.515640,310.587097 
M281.976990,411.468506 
	C281.295380,442.265350 281.839874,473.039856 283.271759,503.802368 
	C284.535095,500.233704 284.901764,496.627472 284.784912,492.961945 
	C284.025909,469.153442 286.756897,445.481079 287.670044,421.737457 
	C287.752838,419.584045 286.456207,415.286469 289.617706,415.616058 
	C293.383118,416.008575 291.023895,419.942383 290.682068,422.250458 
	C289.422760,430.753082 290.857452,439.299591 288.755005,448.289337 
	C296.136017,446.710510 301.677277,443.995605 307.392670,441.796173 
	C308.607910,441.328552 310.507965,440.770721 310.726105,439.908661 
	C311.623871,436.361267 314.342987,437.253265 316.682800,436.831573 
	C323.659302,435.574310 330.597412,436.320831 337.561188,436.866486 
	C341.539276,437.178192 343.415802,435.434570 342.547974,431.451111 
	C340.575836,430.396667 339.325623,433.199677 337.128387,431.384369 
	C337.025482,429.193329 336.733032,426.561371 336.812927,423.940765 
	C336.995392,417.956299 337.444122,411.980072 337.635498,405.995728 
	C338.280151,385.835724 336.317322,365.714630 336.665100,345.564209 
	C336.749634,340.666718 334.848602,339.410370 330.188965,339.250732 
	C316.142059,338.769531 302.332764,341.296600 288.389740,341.916595 
	C284.351562,342.096191 282.963074,343.474701 282.963989,347.576141 
	C282.968689,368.551025 283.612823,389.540924 281.976990,411.468506 
M288.695160,338.695068 
	C303.646301,338.747467 318.478210,336.089966 333.455383,336.726929 
	C335.880920,336.830109 336.600220,335.458557 336.579590,333.260345 
	C336.528107,327.775055 336.581726,322.288849 336.563507,316.803131 
	C336.503937,298.849426 336.721863,280.924744 338.444794,263.012024 
	C339.245422,254.688232 338.581543,246.223557 338.581543,237.338364 
	C337.077362,237.338364 335.436676,237.279846 333.801178,237.347534 
	C319.680328,237.931915 305.553680,238.414429 291.442413,239.179810 
	C280.655945,239.764862 280.874115,239.911774 281.727173,251.013153 
	C282.847290,265.589478 285.038300,280.167297 283.856049,294.805786 
	C282.808014,307.782135 283.549469,320.749542 283.035828,333.708344 
	C282.897308,337.203217 283.887695,339.225555 288.695160,338.695068 
M659.064209,290.724457 
	C659.838440,275.284851 660.527954,259.840240 661.433044,244.408310 
	C661.747925,239.040527 661.451904,238.462463 655.821167,238.396286 
	C647.834839,238.302444 639.842834,238.380386 631.863708,238.093872 
	C624.341797,237.823776 624.478882,237.661316 624.286560,245.274719 
	C623.669312,269.714569 625.375061,294.175323 623.436890,318.611694 
	C622.980347,324.368073 622.959290,330.222900 623.893494,336.035400 
	C624.376160,339.039032 625.673462,340.547577 628.658325,340.593048 
	C636.969788,340.719727 645.275757,341.094055 653.585999,340.225433 
	C656.706665,339.899261 658.031555,338.669617 657.883362,335.521271 
	C657.193970,320.877777 659.432007,306.309387 659.064209,290.724457 
M667.688232,455.376495 
	C668.702576,458.259003 668.102478,461.276062 668.273804,464.113953 
	C669.616028,465.136902 672.013306,463.464142 672.522583,466.585754 
	C666.784241,467.159210 664.985046,470.645660 666.317017,476.559143 
	C689.767761,477.188141 713.343079,476.905426 737.056396,476.307312 
	C737.511414,474.320251 738.382568,472.503357 737.566711,470.499603 
	C735.623291,470.692688 736.736450,473.652588 734.262695,473.324036 
	C732.668091,470.820648 735.177063,466.542358 730.637329,465.294891 
	C732.323303,463.556549 734.041199,462.769501 733.849854,460.464844 
	C733.341980,454.345093 734.027344,448.179443 732.930969,442.051178 
	C732.460999,439.424530 731.594604,438.229675 728.852600,438.289825 
	C713.413025,438.628601 698.002991,436.608673 682.515381,438.071198 
	C677.822632,438.514313 672.928162,440.620972 668.462769,437.912292 
	C666.398804,443.632416 669.116394,449.149933 667.688232,455.376495 
M774.022461,481.373535 
	C773.619934,468.742645 773.194397,456.112427 772.835205,443.480316 
	C772.768250,441.125916 772.595520,439.162842 769.489136,439.090118 
	C761.343140,438.899445 753.199341,438.609955 745.055664,438.331207 
	C741.661011,438.214996 740.313477,439.876221 740.250610,443.187714 
	C740.185364,446.624298 740.959839,450.212982 739.188660,454.320374 
	C736.465942,449.204102 739.381836,444.298737 737.793518,439.502777 
	C735.534119,441.281708 736.134399,443.071228 736.286011,444.600800 
	C737.087524,452.685760 738.204407,460.743011 738.850464,468.838684 
	C739.325867,474.796936 739.265076,480.777802 738.716614,486.777710 
	C738.135376,493.136230 737.324280,499.567749 738.608032,506.107788 
	C749.584717,506.188843 760.153625,504.782562 770.746521,505.583038 
	C773.875732,505.819489 774.653870,504.029968 774.787903,501.270447 
	C775.095947,494.929016 774.381470,488.643158 774.022461,481.373535 
M735.857666,485.985260 
	C736.234924,484.250000 736.612244,482.514740 736.973938,480.851166 
	C736.545959,480.547760 736.283142,480.198303 736.027039,480.203094 
	C711.608582,480.659546 687.138062,479.482605 662.734131,481.075592 
	C662.734131,492.244110 662.734131,501.986755 662.734131,512.244446 
	C700.263733,511.528229 737.441956,514.777344 774.592163,510.904175 
	C774.236633,509.041321 772.695679,509.182678 771.443237,509.189484 
	C754.123108,509.283569 736.786987,509.011017 719.487793,509.680847 
	C701.999756,510.358002 684.553955,510.905182 667.108032,509.209198 
	C665.538879,509.056671 663.607483,509.130554 663.603943,506.740723 
	C664.290405,505.623993 665.353943,505.623260 666.304077,505.805908 
	C681.676575,508.761230 697.150330,507.168762 712.595947,506.905060 
	C718.592346,506.802612 724.591858,506.743652 730.588013,506.819946 
	C733.533936,506.857452 734.688965,505.763153 734.760864,502.717010 
	C734.886536,497.399017 735.448975,492.091400 735.857666,485.985260 
M707.497864,382.160187 
	C694.685974,382.512573 681.875305,382.936737 669.061218,383.166168 
	C665.915527,383.222534 665.223694,384.657379 665.053650,387.465851 
	C664.607849,394.829895 666.735840,402.033813 666.212097,409.376160 
	C665.922546,413.435760 667.670349,415.046844 671.769104,414.995453 
	C678.755493,414.907837 685.746338,415.286987 692.736084,415.323639 
	C704.998047,415.387939 717.260559,415.341614 730.022888,415.341614 
	C731.857361,407.416656 732.070984,398.449982 730.699158,388.898926 
	C727.529236,390.442047 725.143860,388.333191 722.514282,388.402863 
	C706.224487,388.834381 689.906189,387.244171 673.632080,389.126648 
	C671.710510,389.348938 669.293457,390.133484 667.515808,386.201202 
	C689.244080,384.457397 710.453003,386.179321 731.979797,384.500732 
	C731.708313,383.444244 731.067810,383.138458 730.394226,383.018677 
	C723.135376,381.727875 715.799683,382.384827 707.497864,382.160187 
M559.981384,493.662018 
	C555.386169,492.834686 550.898071,494.673859 546.128174,493.611115 
	C537.336243,491.652313 536.317932,492.664093 534.564880,501.285492 
	C534.531860,501.447998 534.457397,501.602722 534.430054,501.765717 
	C532.350586,514.156799 530.820068,526.609619 529.727783,539.894470 
	C543.195190,539.615479 556.161133,540.793152 569.298218,539.237000 
	C568.508667,524.680542 566.802490,510.716309 564.802124,496.778015 
	C564.431152,494.193207 562.441772,494.394348 559.981384,493.662018 
M591.881287,511.633057 
	C592.937866,506.079163 593.886719,500.501709 595.095276,494.981079 
	C595.723755,492.110321 595.557007,490.069733 592.776001,488.165741 
	C589.826660,486.146515 590.886108,484.025391 593.807922,482.559998 
	C595.251038,481.836212 597.170532,481.919495 598.051819,480.198578 
	C600.902893,474.631470 605.180298,470.311523 610.602173,466.317383 
	C593.803650,463.674896 577.583801,467.199463 560.051331,465.577698 
	C562.118530,467.350769 563.042358,468.052094 563.861145,468.859894 
	C570.106995,475.021881 576.057434,481.075012 573.435059,491.323395 
	C572.400818,495.365295 573.009705,499.969757 573.526306,504.238647 
	C574.859314,515.253601 576.912598,526.184387 576.506775,537.365234 
	C576.438965,539.231995 575.877014,541.380615 577.620605,543.164978 
	C579.543396,543.059570 581.524597,542.901794 583.508423,542.855896 
	C585.476074,542.810425 586.481995,541.964966 586.833069,539.940125 
	C588.421387,530.779480 590.124573,521.638855 591.881287,511.633057 
M637.337097,539.933838 
	C638.367249,538.848267 638.316345,537.533325 638.156677,536.181702 
	C637.241333,528.434326 636.264526,520.693176 635.450623,512.935059 
	C634.913696,507.817169 634.603394,502.675140 634.214478,497.542175 
	C633.968506,494.295746 632.407471,492.977295 629.016479,493.114044 
	C623.198425,493.348633 617.363464,493.144806 611.535706,493.162598 
	C605.613281,493.180664 605.003723,493.992035 604.395447,500.120453 
	C603.248352,511.676727 602.039917,523.232666 600.499573,534.740967 
	C599.976990,538.645508 601.142395,539.535767 604.847534,539.816406 
	C615.470886,540.621338 626.088745,540.234497 637.337097,539.933838 
M292.025208,551.695007 
	C292.126617,554.190735 292.225922,556.686584 292.330109,559.182251 
	C292.413574,561.182861 293.596893,562.367004 295.451324,562.399414 
	C297.451019,562.434265 297.655457,560.736511 297.701660,559.169067 
	C297.745880,557.671021 297.755219,556.171936 297.773895,554.673218 
	C297.902527,544.352478 297.582397,534.002380 298.256958,523.717529 
	C299.403412,506.237854 298.921448,488.773193 298.668549,471.300751 
	C298.640381,469.355316 298.855652,466.464447 295.570038,466.627777 
	C292.445618,466.783112 291.093628,468.483521 291.165619,471.871857 
	C291.345978,480.360046 290.929962,488.861633 291.138123,497.348389 
	C291.574738,515.154053 290.527069,532.980652 292.025208,551.695007 
M654.338989,492.500366 
	C654.758057,513.745667 652.585938,534.982666 654.150696,556.234863 
	C654.351501,558.963013 654.022949,561.980713 657.998291,561.770752 
	C661.668274,561.577026 660.675293,558.525574 660.650635,556.419495 
	C660.461792,540.302063 660.205811,524.185120 659.885986,508.069702 
	C659.645203,495.937164 659.722229,483.812378 660.553101,471.704559 
	C660.853027,467.333923 658.815002,466.208801 654.341370,467.060089 
	C654.341370,475.275818 654.341370,483.388031 654.338989,492.500366 
M307.675476,520.782959 
	C308.215729,504.803650 306.460876,488.850128 307.144257,472.859558 
	C307.254333,470.283234 307.182648,467.187286 302.627472,464.397186 
	C300.696991,497.007996 301.753296,528.544006 300.413483,560.511108 
	C307.141418,556.908264 309.091034,553.031250 307.069855,548.291382 
	C306.579193,547.140747 305.085846,546.442200 305.636902,544.820557 
	C308.208527,537.252258 306.745972,529.329956 307.675476,520.782959 
M650.967102,519.663940 
	C651.220215,513.202942 651.594299,506.743835 651.697937,500.280457 
	C651.849976,490.795013 651.885742,481.305725 651.796326,471.819733 
	C651.773438,469.388031 651.638611,466.509460 648.204529,466.174316 
	C643.965088,465.760590 639.714417,465.720032 635.165161,466.456482 
	C643.017822,474.525085 644.961914,479.526215 644.143677,489.230255 
	C643.935364,491.701019 643.094299,494.202576 643.330505,496.612885 
	C644.739075,510.982025 646.682312,525.297668 647.482971,539.728882 
	C647.575623,541.397766 647.835022,543.369934 650.963806,543.838745 
	C650.963806,535.867310 650.963806,528.246460 650.967102,519.663940 
M545.365051,483.666016 
	C552.366943,483.666016 559.368835,483.666016 566.643066,483.666016 
	C566.304810,479.041382 563.649597,476.965485 561.535889,474.851501 
	C556.649658,469.964722 550.777405,467.160095 543.596680,468.362579 
	C541.498474,468.713928 538.012329,469.903137 538.592712,471.236908 
	C540.067505,474.625916 537.468140,474.400116 536.099915,475.341492 
	C533.058838,477.433868 530.665527,479.871063 530.697998,483.676697 
	C535.512878,483.676697 539.960266,483.676697 545.365051,483.666016 
M338.561249,306.986725 
	C337.884552,331.037292 339.306519,355.009949 340.517059,378.898804 
	C342.191711,379.041504 343.179657,378.497009 343.112396,377.733887 
	C339.203796,333.379883 341.663635,289.019562 343.090820,244.648285 
	C340.566376,265.062256 339.711090,285.566010 338.561249,306.986725 
M614.905823,480.574493 
	C622.271179,480.929565 629.636597,481.284607 637.221863,481.650269 
	C635.047363,474.590485 627.975769,470.324249 618.863770,470.021942 
	C612.944946,469.825562 608.807739,473.057465 606.176514,480.099609 
	C608.831787,480.256256 611.425659,480.409302 614.905823,480.574493 
M600.151733,548.333923 
	C598.296082,548.863342 597.924072,550.234192 598.344788,551.854980 
	C598.921082,554.075012 600.881348,553.740112 602.459839,553.711670 
	C613.278931,553.517151 624.096802,553.254761 634.914124,552.977783 
	C636.580505,552.935181 639.025940,553.968384 639.179138,551.065430 
	C639.336182,548.090881 636.857727,548.408142 634.887756,548.263000 
	C623.584900,547.429932 612.282288,546.755798 600.151733,548.333923 
M614.643066,483.092560 
	C612.329895,483.278534 609.997314,483.338623 607.709595,483.690033 
	C605.855835,483.974731 603.303467,483.787567 603.450989,486.723816 
	C603.578308,489.256897 606.007324,489.284546 607.614807,489.362122 
	C614.897766,489.713684 622.219482,490.184601 629.474365,489.743225 
	C632.405029,489.564911 636.145264,489.549622 639.221680,486.388824 
	C631.116089,482.816498 623.267517,483.602081 614.643066,483.092560 
M638.272217,510.594421 
	C638.974365,519.027222 639.682556,527.459595 640.373779,535.893311 
	C640.513611,537.598633 640.587097,539.616760 642.867615,539.444946 
	C645.700684,539.231567 644.899902,536.772278 644.711853,535.143982 
	C643.112427,521.292664 641.399231,507.454376 639.721069,493.612091 
	C639.593628,492.561127 639.371826,491.604980 637.280884,491.817474 
	C636.908081,497.739685 637.151489,503.708496 638.272217,510.594421 
M246.308334,509.375732 
	C228.179459,508.713440 210.043015,507.390411 191.946106,510.183319 
	C213.403427,513.279175 234.871567,509.808899 256.329376,510.606140 
	C256.345123,510.198425 256.360870,509.790680 256.376617,509.382965 
	C253.329758,509.382965 250.282898,509.382965 246.308334,509.375732 
M343.591675,405.861572 
	C343.245270,398.236145 344.532166,390.458740 342.852051,382.957458 
	C342.064758,382.995819 341.277435,383.034180 340.490143,383.072540 
	C340.490143,397.796478 340.490143,412.520416 340.490143,427.638672 
	C343.662659,426.340027 343.555908,423.955261 343.565155,421.670837 
	C343.585297,416.690582 343.560211,411.710144 343.591675,405.861572 
M550.307678,548.765076 
	C546.485413,548.843262 542.637512,548.675415 538.848389,549.070923 
	C535.271851,549.444214 531.362976,547.625916 528.044739,550.681152 
	C542.132385,552.445740 556.285522,551.436584 570.164368,553.517944 
	C571.568359,548.728516 570.184021,547.100342 566.019409,547.540039 
	C561.068298,548.062683 556.094727,548.373657 550.307678,548.765076 
M600.626953,499.504303 
	C599.041809,500.240082 598.658386,501.809509 598.552002,503.220581 
	C597.878296,512.158997 595.257080,520.801697 594.521301,529.693787 
	C594.261230,532.835876 592.099670,536.281006 594.524414,539.511292 
	C597.311340,539.001709 597.262573,536.862122 597.488342,535.204590 
	C598.359131,528.810425 599.162598,522.401550 599.747864,515.975891 
	C600.238770,510.585876 602.274963,505.317047 600.626953,499.504303 
M570.176331,519.471619 
	C571.962341,527.090515 570.465942,535.308960 574.819580,543.144409 
	C574.319458,526.074280 572.075623,509.918732 567.172852,494.124817 
	C568.138855,502.285095 569.104919,510.445374 570.176331,519.471619 
M546.500183,490.596741 
	C553.226440,490.704529 559.944214,490.750885 566.812683,487.965942 
	C556.801697,485.867554 537.558044,486.100494 532.403137,488.347290 
	C536.792786,490.045990 541.235840,490.343079 546.500183,490.596741 
M556.928589,545.282349 
	C560.593384,544.702942 564.445557,545.398254 568.792542,543.826050 
	C554.930115,543.826050 541.931152,543.826050 528.932251,543.826050 
	C528.931763,544.285950 528.931274,544.745850 528.930786,545.205750 
	C537.868225,548.183044 546.980042,546.084412 556.928589,545.282349 
M603.419067,543.063660 
	C602.006409,543.184570 600.100891,542.009460 599.192383,545.276062 
	C612.391907,544.530212 625.188782,544.768799 637.987610,545.547974 
	C637.999756,544.726562 638.011963,543.905212 638.024109,543.083801 
	C626.763550,543.083801 615.502930,543.083801 603.419067,543.063660 
M585.221130,549.380798 
	C584.724182,544.736206 581.021301,546.117065 578.799011,546.629150 
	C574.926575,547.521362 577.056763,550.781982 576.841736,553.442932 
	C580.300232,553.447815 584.249878,555.819458 585.221130,549.380798 
M591.778320,548.162354 
	C591.549316,549.879761 590.281860,551.722290 592.175415,553.193420 
	C592.545776,553.481201 593.599182,553.411438 593.967651,553.086792 
	C595.321411,551.894043 595.751282,550.059631 595.293762,548.536316 
	C594.709839,546.591980 596.229370,544.626099 594.900696,542.617859 
	C591.650940,542.854492 592.451172,545.555542 591.778320,548.162354 
M287.287354,497.484100 
	C287.287354,501.522827 287.287354,505.561584 287.287354,509.600311 
	C287.434296,509.597168 287.581207,509.594055 287.728149,509.590912 
	C287.728149,496.500732 287.728149,483.410522 287.728149,470.320343 
	C287.582916,470.319489 287.437714,470.318665 287.292480,470.317810 
	C287.292480,479.041870 287.292480,487.765900 287.287354,497.484100 
M646.687256,551.013977 
	C645.328369,548.698242 644.104431,550.284607 642.520508,551.047974 
	C643.876343,553.516479 645.005798,554.996277 646.687256,551.013977 
z"/>
<path fill="#000000" opacity="1.000000" stroke="none" 
	d="
M669.793274,160.843994 
	C695.232910,163.009781 719.752686,169.415573 745.024231,168.823914 
	C750.178345,168.703247 754.667847,167.063980 758.637512,163.843506 
	C770.656433,154.092957 782.655701,144.317947 794.725586,134.630859 
	C796.571289,133.149521 798.331970,131.247055 801.506897,131.875412 
	C786.941772,143.331329 774.066284,156.700195 758.734985,167.244919 
	C760.499695,170.085617 764.117493,167.413742 765.393250,170.345856 
	C764.962708,172.546677 763.170593,171.883179 761.830994,171.921158 
	C741.677246,172.492142 721.708130,171.242950 701.736633,167.976608 
	C672.464966,163.189178 642.855164,160.690155 613.222595,162.550491 
	C576.000183,164.887299 538.739441,168.542664 501.508942,166.756592 
	C449.886017,164.280090 398.274506,164.893738 346.659149,164.056076 
	C333.522369,163.842880 320.323151,162.584030 307.233673,163.482834 
	C288.743317,164.752457 270.322510,163.669891 251.900925,163.119598 
	C238.255280,162.711960 224.619690,162.281189 210.966339,162.169678 
	C205.769058,162.127243 200.690659,162.897583 195.557938,163.288528 
	C194.751999,163.349930 193.518463,163.403488 193.237595,163.893448 
	C190.105545,169.357178 186.463715,165.378998 184.172256,163.728317 
	C166.390076,150.918564 148.955841,137.627121 131.245422,124.715904 
	C121.153442,117.358665 110.630348,110.631165 99.151680,105.544807 
	C97.839081,104.963188 96.251419,104.456627 96.779869,102.053116 
	C100.061302,101.797043 102.818443,103.459167 105.461906,104.919243 
	C124.172829,115.253944 141.550644,127.521072 158.066940,141.086807 
	C167.196152,148.585144 176.942795,155.302460 187.782410,160.161072 
	C191.793289,161.958847 195.939484,159.563416 200.081192,159.562225 
	C209.691147,159.559433 219.342926,158.395096 228.902435,158.965042 
	C251.693954,160.323853 274.510925,161.440018 297.296265,160.526520 
	C315.142792,159.811005 332.926697,159.825897 350.711639,160.885666 
	C368.960571,161.973053 387.271057,162.042953 405.448151,161.327408 
	C424.800293,160.565598 444.013397,162.518646 463.316864,162.029877 
	C478.450409,161.646683 493.503601,164.925583 508.668976,164.508102 
	C534.130005,163.807159 559.630859,163.391068 585.019836,161.546310 
	C613.150696,159.502335 641.209106,159.088043 669.793274,160.843994 
z"/>
<path fill="#000000" opacity="1.000000" stroke="none" 
	d="
M874.060547,344.655090 
	C874.348938,325.573853 873.643188,306.963318 872.827576,288.349670 
	C872.666992,284.684509 870.887817,280.995483 872.793640,277.249847 
	C873.555420,275.752808 873.877869,274.064667 876.706360,274.182129 
	C877.831177,278.926727 878.251038,284.105530 876.872498,288.615265 
	C875.572449,292.868073 876.116455,296.774750 876.244324,300.825623 
	C877.221924,331.794678 876.795898,362.788818 877.634949,393.748169 
	C878.307861,418.581024 877.279541,443.364410 877.106079,468.165314 
	C876.952515,490.122314 874.906677,512.051697 875.239014,534.047363 
	C875.332825,540.255737 876.319153,545.228333 882.937439,548.210327 
	C888.574280,550.750000 893.540222,554.778748 899.334351,558.488892 
	C900.414856,538.518860 901.450867,519.372070 902.486816,500.225281 
	C902.949524,500.186890 903.412231,500.148499 903.874878,500.110107 
	C904.002563,502.550995 904.221252,504.991089 904.242920,507.432892 
	C904.371216,521.920105 903.007996,536.349426 902.532776,550.812195 
	C902.334595,556.845947 903.288452,562.438965 909.247070,566.097107 
	C912.775452,568.263245 916.108704,571.091675 916.904175,576.585144 
	C901.737732,562.635681 885.299255,552.056641 867.889771,542.727478 
	C864.292603,551.089294 865.519775,554.067505 872.662842,558.015015 
	C885.767456,565.257202 898.739014,572.742737 911.690430,580.257019 
	C914.001282,581.597839 916.656738,582.877502 917.133362,586.403625 
	C900.744507,576.715454 884.018494,567.741150 866.965698,558.145996 
	C865.791321,561.800476 866.201172,564.771545 866.034546,567.673645 
	C865.867371,570.584167 864.507812,571.544739 861.731873,570.282959 
	C858.898560,568.994934 856.243408,567.139648 852.670837,567.196777 
	C851.090027,573.499146 854.455811,579.535400 853.712463,585.722290 
	C850.954956,585.905273 850.901245,584.061707 850.721436,582.441833 
	C850.226257,577.981689 849.660828,573.522095 849.395630,569.046143 
	C849.219849,566.080627 848.180298,564.031067 845.357361,562.822449 
	C839.695984,560.398743 834.639587,556.852417 828.355652,552.914001 
	C829.203430,559.272034 828.291504,564.670471 830.058960,569.932739 
	C830.504822,571.260437 831.924438,573.031860 829.776184,573.702698 
	C827.235718,574.495972 827.263550,571.858154 827.158752,570.492859 
	C826.802551,565.854370 826.592224,561.183105 826.727112,556.535950 
	C826.820984,553.302307 825.759399,551.260315 822.885193,549.718079 
	C817.206055,546.670715 811.672791,543.351318 805.994751,540.095947 
	C804.042786,544.827698 807.147034,549.375366 805.891052,554.074219 
	C802.895996,553.753540 802.965271,551.700012 803.293274,550.036499 
	C805.237915,540.172363 800.582275,534.975708 791.511047,532.409973 
	C788.294861,531.500366 788.404114,531.114014 785.850708,528.149536 
	C792.712219,528.131531 796.991516,533.308594 802.973022,534.075745 
	C804.383423,531.258728 803.094727,527.919678 804.879089,524.963623 
	C805.134033,527.134460 805.882263,529.385986 805.543091,531.459656 
	C804.795959,536.027954 807.315186,537.977417 810.827576,539.725464 
	C815.708618,542.154663 820.033325,545.651062 826.018372,547.973755 
	C828.045227,526.382324 826.878540,505.137817 828.939209,483.743622 
	C831.381836,484.790131 831.028809,486.119293 830.969360,487.174683 
	C830.286682,499.294159 829.396301,511.403778 828.868713,523.529419 
	C828.522644,531.481567 828.670044,539.455444 828.617188,547.419739 
	C828.609436,548.585876 828.610962,549.823792 829.747498,550.562683 
	C839.750610,557.066345 850.177185,562.707092 861.759155,566.671997 
	C864.538696,560.637939 863.274048,554.594055 863.565796,548.845032 
	C864.130676,537.713623 863.749573,526.535217 863.814819,515.376648 
	C863.830078,512.764282 863.877930,510.053497 867.612671,508.704193 
	C864.750427,519.891296 865.966125,530.158081 868.138916,540.300964 
	C869.347168,540.173889 870.555481,540.046814 871.763733,539.919678 
	C874.331360,475.006866 877.656982,410.105408 874.060547,344.655090 
z"/>
<path fill="#000000" opacity="1.000000" stroke="none" 
	d="
M78.663063,366.000031 
	C78.676147,353.838806 78.707451,342.177612 78.687485,330.516541 
	C78.679115,325.628784 79.944504,320.398682 74.881699,316.223419 
	C95.570251,315.769012 115.272812,319.411041 135.347397,324.189453 
	C133.658356,327.650146 134.154205,330.795868 134.153763,333.905182 
	C134.150391,357.059662 134.424072,380.218048 134.082626,403.367432 
	C133.768539,424.663666 132.789520,445.950012 132.125458,467.241394 
	C132.069244,469.043884 131.773392,470.897064 132.782166,472.806396 
	C134.152084,472.806396 135.591019,472.806396 137.008392,472.806396 
	C138.669174,474.938385 136.520279,477.149536 138.102219,478.943115 
	C120.282486,484.285980 104.687912,493.252167 88.210518,500.146179 
	C79.204582,503.914185 75.355553,501.887390 75.161415,491.967499 
	C74.810280,474.024750 75.275993,456.100311 76.527039,438.189453 
	C76.838104,433.735962 75.309082,428.980438 76.332939,424.779846 
	C81.043030,405.455627 77.657455,385.905518 78.663063,366.000031 
M88.104630,487.542328 
	C97.308182,483.683167 107.164795,481.907654 116.449249,478.057709 
	C128.666641,472.991608 129.667725,473.645813 129.490891,460.380890 
	C128.960419,420.590546 133.564407,380.871338 130.827515,341.055511 
	C130.023178,329.354248 130.372147,329.356476 118.756226,328.168335 
	C113.949806,327.676697 109.157753,327.044678 104.359161,326.476501 
	C109.203384,323.749146 114.293037,325.381775 119.138603,324.242889 
	C107.133591,320.828247 94.815773,319.939972 82.110237,318.661407 
	C81.430809,375.750000 80.755875,432.460480 80.082634,489.029327 
	C83.504036,489.772461 85.267120,488.072296 88.104630,487.542328 
M96.356384,487.995972 
	C91.856308,488.658112 87.906494,490.926208 83.660934,492.324219 
	C80.031128,493.519409 79.937180,495.472382 82.436096,498.886414 
	C96.076462,492.704376 110.645905,488.481750 124.456596,479.161041 
	C114.073967,481.103790 106.153114,486.182922 96.356384,487.995972 
z"/>
<path fill="#000000" opacity="1.000000" stroke="none" 
	d="
M833.401978,415.617920 
	C832.587830,424.830872 835.956238,433.869812 832.268127,442.408569 
	C831.629761,442.460785 831.464294,442.511963 831.320923,442.475830 
	C831.166870,442.437042 830.948853,442.347260 830.904663,442.226379 
	C830.622742,441.455231 830.217773,440.681427 830.159241,439.885925 
	C830.025024,438.062439 829.975342,436.222351 830.049255,434.395355 
	C833.855530,340.282990 828.156921,246.176666 829.885803,152.066254 
	C829.891724,151.743668 830.005737,151.408096 830.135315,151.106995 
	C830.264343,150.807114 830.429321,150.490448 830.665649,150.278198 
	C830.898438,150.069229 831.233826,149.964203 831.537598,149.849060 
	C831.686096,149.792740 831.865234,149.817032 833.490234,149.697083 
	C832.559204,169.029617 832.827820,188.260162 833.385986,208.826187 
	C834.633423,188.613220 835.261108,169.642868 841.184326,151.357635 
	C833.806152,206.487411 832.122681,261.843292 833.465759,316.616791 
	C835.053467,308.869141 834.297913,300.244446 834.950867,291.720306 
	C835.617065,283.023285 835.829834,274.347015 835.140869,265.076630 
	C838.879639,266.366425 838.422119,268.985626 838.431091,271.079590 
	C838.488892,284.565125 838.724304,298.139648 836.810974,311.461121 
	C833.690430,333.186981 834.528015,354.969482 834.231567,376.753326 
	C834.057251,389.566437 833.687195,402.376892 833.401978,415.617920 
z"/>
<path fill="#000000" opacity="1.000000" stroke="none" 
	d="
M808.806519,431.017151 
	C809.706299,376.830566 810.587219,323.138306 811.471252,269.261047 
	C813.807556,269.701233 814.335571,270.778015 814.299255,271.974213 
	C811.664185,358.676788 810.864380,445.409760 811.371399,532.164673 
	C810.510193,532.161255 809.648987,532.157776 808.787781,532.154297 
	C808.787781,498.606720 808.787781,465.059113 808.806519,431.017151 
z"/>
<path fill="#000000" opacity="1.000000" stroke="none" 
	d="
M847.557983,254.330765 
	C846.043701,240.778854 845.823303,227.605881 846.774719,214.500137 
	C847.935242,198.513611 847.228760,182.524094 847.804810,166.549744 
	C848.098145,158.415695 849.144043,150.311462 848.578857,142.466537 
	C855.730042,141.457474 863.049805,141.303482 868.259338,136.428055 
	C873.184937,131.818436 882.366089,130.918411 882.352295,121.647659 
	C885.031372,123.431381 885.535095,126.268555 882.713989,128.802444 
	C876.008667,134.825073 868.952576,140.582916 860.016541,142.894562 
	C856.098511,143.908127 855.750122,145.910751 855.058655,149.462646 
	C852.549683,162.351074 855.072754,174.955521 856.544128,187.551300 
	C857.620728,196.767944 858.709473,206.000977 859.909546,215.211700 
	C860.329102,218.432083 860.346313,221.603409 859.103333,224.807922 
	C856.149658,205.941193 855.160156,186.876190 850.862976,168.212631 
	C850.846313,201.089767 845.546875,233.913208 850.395691,266.934143 
	C848.271545,263.027985 847.707642,258.948456 847.557983,254.330765 
z"/>
<path fill="#000000" opacity="1.000000" stroke="none" 
	d="
M783.347046,342.023193 
	C783.342102,362.219238 783.342102,381.942993 783.342102,401.666779 
	C782.663635,401.672546 781.985229,401.678314 781.306763,401.684082 
	C781.306763,395.950653 781.318115,390.217224 781.304626,384.483826 
	C781.262024,366.356232 780.919617,348.223724 781.228271,330.102203 
	C781.724060,300.995392 782.910889,271.900726 782.710144,242.781158 
	C782.560974,221.135681 781.124023,199.556854 779.349365,177.996964 
	C779.188171,176.038773 779.208740,174.086243 781.061462,173.206375 
	C783.208069,172.186951 784.341125,174.111526 785.435852,175.556747 
	C787.244385,177.944458 788.458618,180.496735 787.512329,183.980362 
	C784.833618,181.803207 784.754028,178.739059 782.908508,176.406036 
	C786.774048,231.454010 784.378418,286.502502 783.347046,342.023193 
z"/>
<path fill="#000000" opacity="1.000000" stroke="none" 
	d="
M868.222595,363.999298 
	C868.230591,377.708771 868.230591,390.918274 868.230591,404.127747 
	C867.713196,404.122620 867.195801,404.117462 866.678406,404.112305 
	C864.177795,357.346832 868.028198,310.583771 866.065735,263.817413 
	C874.685181,263.833984 881.324585,260.850159 888.119202,258.678741 
	C896.192627,256.098633 904.111694,253.035049 912.094299,250.171387 
	C913.500732,249.666824 915.031372,248.791702 916.285950,250.096573 
	C917.417664,251.273605 917.401245,252.768768 915.894348,254.402634 
	C913.269836,251.800415 910.680054,253.476471 907.929932,254.500076 
	C897.035400,258.555054 886.197388,262.826965 874.844788,265.463226 
	C870.793701,266.403992 869.172302,268.214569 869.239746,272.626038 
	C869.474243,287.946442 870.042419,303.329529 868.972961,318.582855 
	C867.921143,333.583679 868.618713,348.534088 868.222595,363.999298 
z"/>
<path fill="#000000" opacity="1.000000" stroke="none" 
	d="
M160.148468,167.926331 
	C130.060318,151.692017 103.258728,130.932892 74.226059,113.709503 
	C72.949745,112.952332 71.434319,112.330231 72.154442,110.076973 
	C74.648285,109.309746 76.445107,111.129585 78.313644,112.215179 
	C92.127731,120.240952 105.208015,129.392975 118.220230,138.630035 
	C132.756180,148.948792 148.490250,157.303055 163.631454,166.627502 
	C168.158066,169.415100 172.881012,171.883545 177.508652,174.507660 
	C178.643967,175.151428 179.846512,175.753448 180.365982,178.185913 
	C172.492065,176.345566 167.012085,171.087570 160.148468,167.926331 
z"/>
<path fill="#000000" opacity="1.000000" stroke="none" 
	d="
M788.091187,317.498291 
	C788.370056,303.924469 788.681213,290.800598 788.992310,277.676697 
	C789.857178,277.718384 790.721985,277.760071 791.586853,277.801758 
	C790.344543,327.765808 787.536194,377.669250 785.066223,427.520721 
	C783.192932,427.701599 783.170471,426.759735 783.196838,425.976929 
	C783.740173,409.849091 783.934509,393.697662 784.984741,377.602234 
	C785.971069,362.485504 786.087891,347.351624 786.821350,332.235260 
	C787.053406,327.453094 789.447327,322.869965 788.091187,317.498291 
z"/>
<path fill="#000000" opacity="1.000000" stroke="none" 
	d="
M906.263489,360.000092 
	C906.255859,381.733948 906.255859,402.967865 906.255859,424.201813 
	C905.489502,424.206757 904.723145,424.211700 903.956848,424.216644 
	C905.764832,372.910706 901.508240,321.698639 903.102783,270.398010 
	C903.147095,268.970947 903.426025,267.349060 906.535828,266.900696 
	C903.898315,297.929077 906.126831,328.704956 906.263489,360.000092 
z"/>
<path fill="#000000" opacity="1.000000" stroke="none" 
	d="
M800.078613,232.999634 
	C800.091187,248.349426 800.091187,263.199310 800.091187,278.049225 
	C799.343750,278.039581 798.596252,278.029938 797.848816,278.020294 
	C797.848816,239.986984 797.848816,201.953644 797.848816,163.768326 
	C800.782593,163.742203 800.774719,165.467392 800.655396,167.126831 
	C799.089355,188.906128 800.466492,210.710907 800.078613,232.999634 
z"/>
<path fill="#000000" opacity="1.000000" stroke="none" 
	d="
M807.286255,219.224670 
	C807.482422,212.329422 807.560303,205.837875 807.745911,199.349411 
	C808.088684,187.368301 808.485657,175.388702 808.887024,163.409363 
	C808.929932,162.129425 808.702942,160.675598 810.339111,159.893005 
	C812.808044,160.584305 812.221741,162.725296 812.163635,164.355377 
	C811.328247,187.779861 810.388794,211.200607 809.538696,234.624588 
	C809.309814,240.931366 809.357422,247.248032 809.142761,253.555557 
	C809.085205,255.245636 809.686768,257.187225 807.075806,259.580627 
	C806.653198,245.605194 806.554199,232.625381 807.286255,219.224670 
z"/>
<path fill="#000000" opacity="1.000000" stroke="none" 
	d="
M850.494263,369.483612 
	C850.668457,350.851532 850.857605,332.614441 851.046814,314.377380 
	C851.686401,314.388641 852.325989,314.399933 852.965576,314.411224 
	C854.106812,349.195831 852.322144,383.982788 852.646667,419.200958 
	C850.012268,418.205444 850.309509,416.410431 850.191528,414.640900 
	C849.195679,399.709900 849.798828,384.794739 850.494263,369.483612 
z"/>
<path fill="#000000" opacity="1.000000" stroke="none" 
	d="
M860.544678,261.445831 
	C859.714233,250.445404 858.372803,239.913620 859.544800,229.082062 
	C861.498901,229.988892 860.907593,231.497894 860.966980,232.640442 
	C861.139587,235.962524 860.946533,239.309219 861.222412,242.619125 
	C861.734985,248.769623 862.897400,249.544754 868.786316,248.051895 
	C881.729065,244.770859 893.838257,239.180527 906.263672,234.467316 
	C907.737427,233.908325 909.125061,232.752609 910.723694,233.833954 
	C911.094238,235.665649 909.924683,236.044556 908.821533,236.438736 
	C894.594177,241.522324 881.006226,248.411270 866.125793,251.641129 
	C863.157166,252.285492 862.059021,253.846436 862.175598,256.884369 
	C862.376221,262.112366 862.231140,267.353607 862.231140,273.364044 
	C859.833374,269.314423 861.302185,265.443726 860.544678,261.445831 
z"/>
<path fill="#000000" opacity="1.000000" stroke="none" 
	d="
M737.725952,300.832336 
	C737.784424,280.164246 739.368652,260.094971 741.034119,240.032043 
	C741.895691,240.086487 742.757263,240.140930 743.618835,240.195374 
	C740.616821,265.739288 740.425293,291.414185 739.164062,317.058258 
	C736.151489,311.949585 737.792664,306.570068 737.725952,300.832336 
z"/>
<path fill="#000000" opacity="1.000000" stroke="none" 
	d="
M78.025887,379.210693 
	C78.032936,391.273163 78.032936,402.860626 78.032936,415.112549 
	C75.744781,411.610565 74.194435,328.993927 76.550491,324.860870 
	C77.875145,342.786530 76.526413,360.816620 78.025887,379.210693 
z"/>
<path fill="#000000" opacity="1.000000" stroke="none" 
	d="
M834.271240,483.096130 
	C835.799194,503.293549 836.827881,523.069275 837.040100,542.879578 
	C837.063232,545.032654 837.883484,547.535889 835.621399,549.353027 
	C833.967285,546.411499 831.971252,484.661926 833.392029,476.475952 
	C834.705078,479.002319 834.108887,480.901062 834.271240,483.096130 
z"/>
<path fill="#000000" opacity="1.000000" stroke="none" 
	d="
M585.066284,137.874512 
	C584.409424,140.906921 586.903076,145.468475 582.369751,145.532822 
	C577.822327,145.597321 579.004150,141.020752 578.939453,138.070496 
	C578.855530,134.247101 579.248840,130.415390 579.247803,126.587311 
	C579.247009,123.893303 580.438232,122.312325 583.061951,122.494904 
	C585.799866,122.685425 585.721802,124.687920 585.484802,126.936890 
	C585.119629,130.402084 585.177490,133.911896 585.066284,137.874512 
z"/>
<path fill="#000000" opacity="1.000000" stroke="none" 
	d="
M377.022919,129.143112 
	C377.329712,126.408264 375.558472,122.663979 378.783508,122.361336 
	C382.238007,122.037140 382.344604,126.073441 382.755341,128.683563 
	C383.318176,132.260452 383.412384,135.912766 383.671204,139.535355 
	C383.938477,143.276855 379.903290,141.936874 378.731934,145.507324 
	C375.706635,139.333740 377.508209,134.353149 377.022919,129.143112 
z"/>
<path fill="#000000" opacity="1.000000" stroke="none" 
	d="
M356.467682,143.342743 
	C355.539154,140.843475 354.792908,138.662781 354.177002,136.445892 
	C353.783295,135.028488 353.317169,133.470764 354.674835,132.291931 
	C356.099640,131.054794 357.259094,132.632706 358.529022,132.994492 
	C358.781494,131.539871 358.006531,130.645462 357.339325,129.698364 
	C355.903473,127.660072 356.287781,125.594521 358.375946,124.694946 
	C360.743835,123.674873 361.770172,126.046844 361.857025,127.683777 
	C362.110168,132.453705 362.234222,137.283264 361.744690,142.020798 
	C361.431488,145.051865 359.206940,145.609299 356.467682,143.342743 
z"/>
<path fill="#000000" opacity="1.000000" stroke="none" 
	d="
M606.153015,132.890076 
	C606.145325,135.979111 606.145325,138.620895 606.145325,141.544556 
	C604.400452,142.451935 602.487305,143.891083 600.419250,142.535782 
	C598.408203,141.217896 599.329407,138.973480 599.557495,137.026947 
	C599.884521,134.236130 599.959595,131.403976 600.471741,128.650787 
	C600.813843,126.811996 601.004333,124.088699 603.572998,124.274612 
	C606.009155,124.450928 606.132324,126.915352 606.151978,128.966675 
	C606.163147,130.125305 606.158325,131.284119 606.153015,132.890076 
z"/>
<path fill="#000000" opacity="1.000000" stroke="none" 
	d="
M905.317139,482.988159 
	C905.033752,487.490143 905.993958,491.648438 904.023315,495.871887 
	C902.270874,490.615204 902.934021,459.087891 905.318115,453.530334 
	C905.318115,463.185242 905.318115,472.840149 905.317139,482.988159 
z"/>
<path fill="#000000" opacity="1.000000" stroke="none" 
	d="
M865.897705,493.912231 
	C865.868347,485.703735 865.573975,477.966644 867.204529,470.295837 
	C868.272705,481.503387 868.550537,492.698486 867.702148,503.886017 
	C867.104248,503.899750 866.506409,503.913513 865.908508,503.927246 
	C865.908508,500.750092 865.908508,497.572937 865.897705,493.912231 
z"/>
<path fill="#000000" opacity="1.000000" stroke="none" 
	d="
M849.965088,285.879272 
	C849.864075,283.559174 849.212830,281.579437 851.321350,278.712769 
	C854.658569,289.893066 852.721741,300.172821 852.324646,310.383301 
	C849.838684,302.527313 851.844971,294.229706 849.965088,285.879272 
z"/>
<path fill="#000000" opacity="1.000000" stroke="none" 
	d="
M866.244385,440.415405 
	C866.840515,439.333893 867.638184,439.388550 867.709717,440.159821 
	C868.531921,449.022583 868.180908,457.872559 867.269470,466.725708 
	C865.468933,458.105316 865.952637,449.416290 866.244385,440.415405 
z"/>
<path fill="#000000" opacity="1.000000" stroke="none" 
	d="
M865.891724,421.664703 
	C866.097229,419.389587 865.379089,417.318604 867.283020,415.266479 
	C868.541809,418.860657 868.264465,422.068146 867.539673,425.464111 
	C865.524170,424.773163 866.161499,423.221008 865.891724,421.664703 
z"/>
<path fill="#000000" opacity="1.000000" stroke="none" 
	d="
M593.909668,348.341461 
	C598.397644,354.742310 595.717590,361.075867 595.703613,367.878662 
	C591.000671,366.483215 589.355042,363.724213 588.994141,360.298218 
	C588.665588,357.178772 588.789185,353.989441 588.967163,350.845306 
	C589.135559,347.872070 590.577209,346.518219 593.909668,348.341461 
z"/>
<path fill="#000000" opacity="1.000000" stroke="none" 
	d="
M578.227905,353.234985 
	C578.204590,356.670288 578.231934,359.646149 578.131042,362.617645 
	C578.081482,364.077942 578.091431,365.800873 576.050964,365.996155 
	C574.153137,366.177795 572.738831,365.113190 572.324707,363.376343 
	C571.056763,358.058044 571.983887,352.885986 573.857605,347.848938 
	C574.158875,347.038940 574.840454,346.455109 575.753479,346.560486 
	C576.804321,346.681763 577.728210,347.328247 577.919922,348.340851 
	C578.193542,349.786011 578.139771,351.293091 578.227905,353.234985 
z"/>
<path fill="#000000" opacity="1.000000" stroke="none" 
	d="
M226.596893,499.219788 
	C225.115158,501.916260 223.916000,501.042206 223.857330,498.991150 
	C223.546829,488.134796 223.496719,477.273193 224.823715,466.440979 
	C227.285538,477.172028 225.590469,488.084991 226.596893,499.219788 
z"/>
<path fill="#000000" opacity="1.000000" stroke="none" 
	d="
M519.658386,436.759460 
	C535.112244,435.165344 550.057556,436.108429 565.017029,436.136322 
	C565.029602,437.026093 565.042175,437.915863 565.054688,438.805634 
	C549.232178,439.646088 533.315674,438.226746 516.378357,439.760010 
	C522.527588,439.279633 525.616394,441.928314 527.687439,446.418091 
	C524.988159,448.846344 521.844910,447.755920 519.063904,447.615173 
	C493.964966,446.344757 468.877319,447.145416 443.787659,447.788361 
	C440.805511,447.864777 437.992371,447.988953 437.612335,443.899750 
	C437.387573,441.481323 435.479279,441.305969 433.545288,441.190613 
	C431.679352,441.079315 429.592743,441.534973 427.476715,439.125763 
	C458.540314,437.341370 488.902405,438.305084 519.658386,436.759460 
M459.502838,444.053802 
	C479.746735,444.053802 499.990631,444.053802 520.234558,444.053802 
	C494.346466,441.237885 468.463318,441.844940 442.580505,442.784576 
	C442.580109,443.209320 442.579681,443.634064 442.579285,444.058807 
	C447.887726,444.058807 453.196136,444.058807 459.502838,444.053802 
z"/>
<path fill="#000000" opacity="1.000000" stroke="none" 
	d="
M704.818604,463.100647 
	C712.503052,463.095947 719.909302,461.549988 726.924805,464.027435 
	C727.001648,465.394287 726.644653,466.014160 725.912231,466.022400 
	C719.298828,466.096954 712.683777,466.184265 706.071594,466.095917 
	C704.418213,466.073822 702.513367,465.577728 704.818604,463.100647 
z"/>
<path fill="#000000" opacity="1.000000" stroke="none" 
	d="
M94.362518,400.746002 
	C92.857216,427.851837 93.013863,454.626251 90.178177,481.668488 
	C87.120651,480.242920 87.657921,477.852844 87.753296,475.893616 
	C88.415222,462.295624 89.977806,448.758362 90.248436,435.126038 
	C90.482224,423.349670 91.111755,411.579102 91.696213,399.812439 
	C92.155823,390.559021 93.677155,381.321075 91.794624,372.053345 
	C91.700798,371.591461 92.316666,370.985352 93.360489,370.484222 
	C95.964668,380.361816 93.987312,390.403076 94.362518,400.746002 
z"/>
</svg>