<svg version="1.1" id="Layer_1" xmlns="http://www.w3.org/2000/svg" xmlns:xlink="http://www.w3.org/1999/xlink" x="0px" y="0px"
	 width="100%" viewBox="0 0 1024 928" enable-background="new 0 0 1024 928" xml:space="preserve">
<path fill="#000000" opacity="1.000000" stroke="none" 
	d="
M554.985596,893.969360 
	C530.650085,894.040527 506.848999,893.190186 483.184570,890.211243 
	C473.450378,888.985901 463.982544,886.185486 454.302643,884.466309 
	C435.959198,881.208557 417.901978,876.493958 400.100128,871.059753 
	C380.531799,865.086304 361.150055,858.450745 342.676361,849.476196 
	C335.060028,845.776123 327.110352,842.835938 319.640503,838.757202 
	C305.190033,830.866638 291.282623,822.057068 277.477081,813.170044 
	C265.456390,805.431946 255.215820,795.185486 244.744400,785.442688 
	C237.349472,778.562256 229.900986,771.707642 223.222488,764.028992 
	C213.504959,752.856018 204.001297,741.555359 195.113922,729.693726 
	C181.626495,711.692444 169.553131,692.951843 159.530563,672.718323 
	C147.636688,648.707031 137.021057,624.239685 129.428726,598.580933 
	C125.996117,586.980164 124.366562,574.852112 121.771187,562.995605 
	C118.709816,549.010315 115.801231,535.003784 114.389687,520.735046 
	C113.832703,515.104675 112.924881,509.462677 112.950294,503.829468 
	C113.046417,482.512604 111.373856,461.125275 113.874542,439.896179 
	C115.994881,421.895905 118.152885,403.772919 122.312073,386.181305 
	C125.493141,372.726685 130.484467,359.543518 134.581207,346.268921 
	C137.927917,335.424683 142.455643,325.129059 146.530899,314.688934 
	C149.849442,306.187347 153.909698,297.760681 158.865982,289.849609 
	C162.360992,284.270966 165.428024,278.332458 168.512329,272.507874 
	C174.933029,260.382568 183.792068,250.092911 191.565689,238.985016 
	C205.258148,219.419479 221.425430,201.998718 237.866531,184.813446 
	C247.649689,174.587479 258.718231,165.742065 269.356171,156.440308 
	C287.665955,140.430374 307.438263,126.380363 328.094818,113.631042 
	C340.087189,106.229301 352.339539,99.099220 365.046570,93.047211 
	C377.689728,87.025620 391.077271,82.577599 404.080353,77.296616 
	C410.381226,74.737640 416.821503,72.534477 422.921967,69.443169 
	C427.806396,66.968048 433.379547,66.237160 438.581421,64.681328 
	C447.750763,61.938889 456.818817,58.362411 466.527618,57.585236 
	C467.684479,57.492630 468.922089,57.428566 469.959717,56.977394 
	C480.816040,52.256802 492.902130,53.250416 503.997803,49.568481 
	C508.951508,47.924683 514.263245,48.760929 519.404846,48.416885 
	C536.661987,47.262142 553.734802,44.367886 571.157898,44.502491 
	C593.793579,44.677368 615.828186,49.089394 638.082703,52.018543 
	C665.736084,55.658295 692.570312,62.985172 718.797119,72.052200 
	C743.237244,80.501511 767.414978,89.917381 790.445557,101.895500 
	C805.325684,109.634621 820.310486,117.185143 833.684265,127.518051 
	C837.072754,130.136093 841.206604,131.776154 844.940735,133.963287 
	C850.471741,137.202942 852.753174,142.010330 852.851562,148.488266 
	C853.020447,159.605499 852.048096,170.826233 854.922668,181.792053 
	C855.257080,183.067764 855.231506,184.435974 855.396423,185.758362 
	C855.805908,189.041763 854.325134,191.448837 851.390686,192.460983 
	C848.465698,193.469849 845.687439,192.390656 843.957825,189.787857 
	C835.343506,176.824692 824.459412,165.780518 812.742615,155.864914 
	C796.575867,142.183517 779.719849,129.303574 761.597168,118.113892 
	C751.520996,111.892448 741.420837,105.670059 730.725525,100.771324 
	C710.033020,91.293655 689.414001,81.630722 667.496826,74.937408 
	C657.962769,72.025787 648.340454,69.442451 638.681458,67.467003 
	C622.054565,64.066460 604.977234,63.653652 588.068359,62.246212 
	C569.284363,60.682682 550.455261,60.358727 531.673035,62.232285 
	C520.252991,63.371456 508.538696,63.783260 497.584930,66.801933 
	C484.393219,70.437332 470.399170,69.928162 457.694641,75.233963 
	C446.066895,80.090080 433.412415,81.831039 422.046143,87.523430 
	C416.426910,90.337639 410.005951,91.604500 404.515411,94.608894 
	C397.428009,98.487083 389.322571,99.974709 382.723633,105.180443 
	C378.840546,108.243729 373.691650,109.871712 369.213257,112.408951 
	C360.807526,117.171257 352.796204,122.455803 344.981903,128.111343 
	C326.805420,141.266449 309.384491,155.394775 293.741394,171.431808 
	C287.316467,178.018539 280.684326,184.519653 274.764709,191.731812 
	C266.662720,201.602875 258.748016,211.641815 250.475845,221.372421 
	C245.452698,227.281189 242.049347,234.205307 238.300034,240.770920 
	C225.276382,263.577148 211.435745,286.090851 204.331696,311.744293 
	C196.920944,338.505371 189.682037,365.339050 185.871307,392.892853 
	C180.622162,430.847198 181.111542,468.871002 184.539612,507.010132 
	C186.309250,526.698181 190.573242,545.853027 194.664795,565.013733 
	C199.096619,585.767944 205.424530,606.084473 213.866623,625.705017 
	C218.520493,636.521240 222.287506,647.700317 227.548325,658.298645 
	C235.707779,674.736450 245.646332,690.094971 255.074631,705.784058 
	C263.398682,719.635681 272.428833,733.036743 282.487549,745.536011 
	C296.193634,762.567566 310.198425,779.327759 327.227631,793.585938 
	C338.565765,803.079163 350.906891,811.174744 362.112457,820.823853 
	C369.057495,826.804321 377.796967,830.817871 386.031921,835.141052 
	C391.260162,837.885803 394.828857,835.210815 394.685577,829.210022 
	C393.440399,777.065735 394.405609,724.900940 393.439911,672.764404 
	C392.887268,642.927795 394.553406,613.144775 393.827515,583.315491 
	C393.061279,551.829834 390.901794,520.434937 389.238922,489.005005 
	C388.631714,477.528076 388.297577,466.032837 388.051697,454.541412 
	C387.264160,417.731506 386.212097,380.928131 385.477142,344.115997 
	C384.918579,316.139465 384.117950,288.164703 383.654663,260.182068 
	C383.470093,249.035385 382.750000,237.882355 381.840210,226.767685 
	C381.106598,217.805069 377.636536,209.684814 372.274597,202.485062 
	C370.616119,200.258102 367.431549,199.752853 365.677063,197.312561 
	C362.119354,192.364212 362.907715,189.126190 368.488129,186.782562 
	C370.701569,185.852936 373.016968,185.462311 375.339081,185.729584 
	C389.570038,187.367645 403.902771,186.225464 418.169891,187.508240 
	C428.289001,188.418091 438.409119,187.069244 448.296204,184.393463 
	C453.311127,183.036224 458.468475,182.886551 463.665924,182.900787 
	C497.329834,182.992996 530.994812,182.846436 564.657776,183.051071 
	C578.802856,183.137039 592.804199,184.508728 606.842163,186.966202 
	C616.378845,188.635666 625.628296,191.035934 634.784485,193.754517 
	C643.673584,196.393799 652.301636,200.066391 660.799133,203.837677 
	C677.360779,211.187866 692.176025,221.404694 705.613037,233.443542 
	C715.294800,242.117874 722.931335,252.472198 728.528320,264.403564 
	C739.053711,286.841187 740.462646,310.269104 736.228577,334.132111 
	C733.463135,349.718170 728.045166,364.421326 718.750000,377.660583 
	C709.501221,390.833893 698.714111,402.095093 686.104248,412.225616 
	C675.398621,420.826294 665.515991,430.614624 655.044128,439.621002 
	C647.848328,445.809753 640.263794,451.506561 631.840576,455.968506 
	C629.781799,457.059021 627.052063,457.734436 627.678406,460.734131 
	C628.289429,463.660492 631.227539,463.722137 633.396545,463.579193 
	C644.718323,462.833008 656.007812,463.575317 667.306213,463.961548 
	C669.464600,464.035309 671.676514,464.014832 673.762878,464.485260 
	C688.356873,467.776093 703.567627,468.701569 717.588684,474.004425 
	C733.846802,480.153320 750.222290,486.123840 765.228333,495.353668 
	C776.030334,501.997681 786.680420,508.712433 796.254272,517.040100 
	C811.597168,530.385681 823.748779,546.315491 834.391968,563.554932 
	C840.184265,572.937073 844.033752,583.223938 849.120728,592.921936 
	C852.402161,599.177979 854.054077,606.074158 855.596069,612.839172 
	C860.567383,634.649109 863.151794,656.590637 861.884888,679.199219 
	C860.839172,697.858887 856.917175,715.826050 852.554260,733.692932 
	C849.987366,744.204773 845.638367,754.477295 840.248474,764.139771 
	C832.914612,777.287170 824.025452,789.269043 813.861511,800.298035 
	C801.399109,813.821045 787.167908,825.316772 771.658997,835.125366 
	C751.758728,847.711060 730.118042,856.869080 708.367004,865.617065 
	C700.262390,868.876648 691.901062,871.685486 683.186340,873.560303 
	C677.502136,874.783203 671.862000,876.956238 666.097778,878.457581 
	C651.962158,882.139343 637.746399,885.138000 623.321655,887.612915 
	C610.538025,889.806335 597.773743,892.120300 584.885742,893.310486 
	C575.147583,894.209778 565.288391,893.797913 554.985596,893.969360 
	M627.499512,477.151337 
	C622.835022,477.059753 618.150757,477.203888 613.511108,476.815277 
	C608.052368,476.358093 602.896484,477.307098 597.860596,479.201294 
	C579.250366,486.201385 562.638489,497.015656 546.167542,507.749146 
	C532.470947,516.674683 519.944275,527.500061 508.111877,538.849792 
	C503.940521,542.850952 499.178375,546.343018 495.491455,550.653320 
	C483.988129,564.101624 472.057526,577.210999 461.563995,591.520386 
	C459.563446,594.248474 456.367340,598.435486 452.703613,596.040527 
	C449.262054,593.790894 450.693420,589.150146 452.220276,585.499329 
	C452.284332,585.346130 452.375305,585.204407 452.449036,585.054932 
	C459.859650,570.027283 470.711121,557.406494 480.880554,544.301514 
	C483.166168,541.356201 486.827576,540.115784 489.004639,537.002380 
	C493.227051,530.963989 498.861267,526.100464 504.588745,521.723572 
	C513.671326,514.782715 521.934143,506.832397 531.536987,500.519653 
	C539.707886,495.148285 547.498352,489.182068 555.309692,483.283722 
	C565.308777,475.733429 577.362427,471.120117 586.057800,461.712769 
	C586.607483,461.118103 587.376404,460.682220 588.113281,460.311310 
	C594.602966,457.044373 599.405273,451.560028 604.837280,447.011871 
	C614.228210,439.148895 623.236511,430.797821 631.618042,421.746704 
	C638.306396,414.524109 644.411499,406.905457 650.165833,399.001953 
	C657.422607,389.034821 662.996094,378.112366 667.870667,366.752167 
	C672.292969,356.446014 675.527649,345.788574 677.502441,334.889801 
	C679.762451,322.417023 679.098022,309.649780 678.705383,296.993378 
	C678.451965,288.823547 676.665588,281.026245 674.265930,273.105469 
	C671.609070,264.335968 666.714783,256.886780 663.005676,248.784210 
	C658.584351,239.125870 649.453491,232.956467 643.339600,224.475891 
	C642.977417,223.973480 642.262695,223.710083 641.686890,223.379196 
	C635.238403,219.673676 629.278198,215.176636 622.462036,212.045456 
	C615.386780,208.795288 608.222351,205.260117 600.935486,203.126816 
	C578.189453,196.467697 554.513306,196.543884 531.054749,196.571060 
	C502.244324,196.604446 473.431946,197.977310 444.640289,195.899826 
	C438.992981,195.492340 437.847778,196.224884 437.389374,201.915054 
	C436.814636,209.049469 436.266846,216.202209 436.152771,223.354156 
	C435.918915,238.010391 436.778137,252.665558 436.906769,267.307068 
	C437.545227,339.956909 437.663086,412.611267 437.997009,485.263855 
	C438.074371,502.094330 438.122345,518.927429 438.467834,535.753479 
	C438.866516,555.168335 439.608917,574.575928 440.124573,593.988770 
	C440.201447,596.882935 440.223206,599.633179 442.612488,601.773743 
	C447.879822,606.492676 448.394104,609.406616 444.328644,615.161865 
	C440.739807,620.242371 439.618622,625.699890 440.370514,631.731445 
	C440.658569,634.042053 440.860260,636.372925 440.930634,638.699768 
	C441.756958,666.013977 442.131042,693.333862 442.111359,720.661743 
	C442.086609,754.991577 442.340118,789.322266 442.170532,823.651062 
	C442.126770,832.516479 444.324432,841.214233 443.742737,850.010071 
	C443.408539,855.063232 444.907684,858.274048 449.306274,860.564026 
	C463.709045,868.062439 479.693207,870.118225 495.196594,873.591492 
	C505.050964,875.799194 515.292847,876.560852 525.410095,877.249939 
	C544.031799,878.518250 562.720215,878.951477 581.303101,876.914612 
	C596.499084,875.248901 611.760315,873.898132 626.764038,870.713989 
	C641.582214,867.569153 656.565186,864.665283 670.347046,858.310486 
	C687.078857,850.595520 703.407104,842.016724 717.924866,830.346069 
	C726.351929,823.571716 735.136047,817.175903 742.518066,809.282837 
	C750.314453,800.946777 757.637329,792.188721 764.413025,782.916443 
	C771.731689,772.901306 777.598328,762.079529 782.989563,751.104065 
	C790.306519,736.207825 795.257263,720.382690 799.249451,704.140930 
	C804.088013,684.455933 805.579407,664.825989 803.901001,644.729614 
	C803.007446,634.031677 800.645203,623.624451 797.525940,613.526978 
	C795.401672,606.650696 792.016785,600.000366 789.904846,593.070496 
	C787.157104,584.054199 782.913208,575.929016 778.170898,567.903381 
	C774.949463,562.451599 770.847046,557.578064 767.670166,552.204834 
	C754.204041,529.428528 736.282959,511.251953 713.793823,497.404785 
	C710.607849,495.443024 707.050171,494.647034 703.794495,492.957886 
	C695.223511,488.511108 686.206116,484.820465 676.906250,482.506378 
	C661.078918,478.568085 644.779785,477.639801 627.499512,477.151337 
	z" />
</svg>